G04*
G04 #@! TF.GenerationSoftware,Altium Limited,Altium Designer,22.11.1 (43)*
G04*
G04 Layer_Color=8421504*
%FSLAX44Y44*%
%MOMM*%
G71*
G04*
G04 #@! TF.SameCoordinates,BEA400A9-7B0A-4234-B2B5-4D1F4660E836*
G04*
G04*
G04 #@! TF.FilePolarity,Positive*
G04*
G01*
G75*
%ADD14R,1.2000X0.6000*%
%ADD15R,1.0000X1.4500*%
G04:AMPARAMS|DCode=16|XSize=2.15mm|YSize=3.25mm|CornerRadius=0.2688mm|HoleSize=0mm|Usage=FLASHONLY|Rotation=90.000|XOffset=0mm|YOffset=0mm|HoleType=Round|Shape=RoundedRectangle|*
%AMROUNDEDRECTD16*
21,1,2.1500,2.7125,0,0,90.0*
21,1,1.6125,3.2500,0,0,90.0*
1,1,0.5375,1.3563,0.8063*
1,1,0.5375,1.3563,-0.8063*
1,1,0.5375,-1.3563,-0.8063*
1,1,0.5375,-1.3563,0.8063*
%
%ADD16ROUNDEDRECTD16*%
G04:AMPARAMS|DCode=17|XSize=2.3mm|YSize=1mm|CornerRadius=0.25mm|HoleSize=0mm|Usage=FLASHONLY|Rotation=90.000|XOffset=0mm|YOffset=0mm|HoleType=Round|Shape=RoundedRectangle|*
%AMROUNDEDRECTD17*
21,1,2.3000,0.5000,0,0,90.0*
21,1,1.8000,1.0000,0,0,90.0*
1,1,0.5000,0.2500,0.9000*
1,1,0.5000,0.2500,-0.9000*
1,1,0.5000,-0.2500,-0.9000*
1,1,0.5000,-0.2500,0.9000*
%
%ADD17ROUNDEDRECTD17*%
%ADD18R,0.9600X1.3900*%
%ADD19R,2.1500X2.8000*%
%ADD20R,2.3500X1.6000*%
%ADD21R,1.7500X1.0500*%
%ADD22R,1.2500X0.7500*%
%ADD23R,1.6000X2.3500*%
%ADD24R,1.3900X0.9600*%
%ADD25R,0.6500X1.5250*%
%ADD26R,1.5500X0.7000*%
%ADD27R,1.4500X1.0000*%
%ADD28R,2.1000X1.4500*%
G04:AMPARAMS|DCode=29|XSize=0.55mm|YSize=1mm|CornerRadius=0.1375mm|HoleSize=0mm|Usage=FLASHONLY|Rotation=0.000|XOffset=0mm|YOffset=0mm|HoleType=Round|Shape=RoundedRectangle|*
%AMROUNDEDRECTD29*
21,1,0.5500,0.7250,0,0,0.0*
21,1,0.2750,1.0000,0,0,0.0*
1,1,0.2750,0.1375,-0.3625*
1,1,0.2750,-0.1375,-0.3625*
1,1,0.2750,-0.1375,0.3625*
1,1,0.2750,0.1375,0.3625*
%
%ADD29ROUNDEDRECTD29*%
G04:AMPARAMS|DCode=30|XSize=0.45mm|YSize=0.85mm|CornerRadius=0.0338mm|HoleSize=0mm|Usage=FLASHONLY|Rotation=90.000|XOffset=0mm|YOffset=0mm|HoleType=Round|Shape=RoundedRectangle|*
%AMROUNDEDRECTD30*
21,1,0.4500,0.7825,0,0,90.0*
21,1,0.3825,0.8500,0,0,90.0*
1,1,0.0675,0.3912,0.1913*
1,1,0.0675,0.3912,-0.1913*
1,1,0.0675,-0.3912,-0.1913*
1,1,0.0675,-0.3912,0.1913*
%
%ADD30ROUNDEDRECTD30*%
%ADD31R,1.2500X1.1000*%
%ADD32R,1.0500X1.7500*%
%ADD33R,0.7500X1.2500*%
D14*
X178000Y310490D02*
D03*
Y300990D02*
D03*
Y291490D02*
D03*
X203000D02*
D03*
Y310490D02*
D03*
D15*
X1234011Y510011D02*
D03*
X1253011D02*
D03*
X1299500Y105000D02*
D03*
X1280500D02*
D03*
X1129000Y66000D02*
D03*
X1148500D02*
D03*
X1020500Y809000D02*
D03*
X1001500D02*
D03*
X1021500Y723000D02*
D03*
X1002500D02*
D03*
X575032Y654000D02*
D03*
X556032D02*
D03*
X498500Y597000D02*
D03*
X517500D02*
D03*
X523500Y529000D02*
D03*
X504500D02*
D03*
X654500Y628000D02*
D03*
X673500D02*
D03*
X612500Y654000D02*
D03*
X593500D02*
D03*
X628500D02*
D03*
X647500D02*
D03*
X718500Y580000D02*
D03*
X699500D02*
D03*
X293500Y468000D02*
D03*
X312500D02*
D03*
X327500Y535000D02*
D03*
X346500D02*
D03*
X100500Y503000D02*
D03*
X81500D02*
D03*
X143840Y518560D02*
D03*
X162840D02*
D03*
X100500Y481000D02*
D03*
X81500D02*
D03*
X119500Y527000D02*
D03*
X100500D02*
D03*
X82500Y526000D02*
D03*
X63500D02*
D03*
D16*
X166000Y772000D02*
D03*
X66000Y771000D02*
D03*
X780000Y547000D02*
D03*
D17*
X143000Y708000D02*
D03*
X189000D02*
D03*
X166000D02*
D03*
X43000Y707000D02*
D03*
X89000D02*
D03*
X66000D02*
D03*
X803000Y611000D02*
D03*
X757000D02*
D03*
X780000D02*
D03*
D18*
X150900Y797000D02*
D03*
X167100D02*
D03*
X124100Y768000D02*
D03*
X107900D02*
D03*
X124100Y745000D02*
D03*
X107900D02*
D03*
X124100Y722000D02*
D03*
X107900D02*
D03*
X124100Y702000D02*
D03*
X107900D02*
D03*
X933100Y701000D02*
D03*
X916900D02*
D03*
X645100Y675000D02*
D03*
X628900D02*
D03*
X717100Y600000D02*
D03*
X700900D02*
D03*
X700100Y541000D02*
D03*
X683900D02*
D03*
X258900Y836000D02*
D03*
X275100D02*
D03*
X214280Y480730D02*
D03*
X230480D02*
D03*
X214280Y499780D02*
D03*
X230480D02*
D03*
X181900Y340000D02*
D03*
X198100D02*
D03*
X224900Y151000D02*
D03*
X241100D02*
D03*
X90100Y675000D02*
D03*
X73900D02*
D03*
X258900Y856000D02*
D03*
X275100D02*
D03*
X688900Y766000D02*
D03*
X705100D02*
D03*
D19*
X1565450Y37000D02*
D03*
X1614550D02*
D03*
D20*
X1314500Y74000D02*
D03*
X1271500D02*
D03*
X1218500Y224000D02*
D03*
X1261500D02*
D03*
X1317500Y135000D02*
D03*
X1274500D02*
D03*
X1209500Y538000D02*
D03*
X1252500D02*
D03*
X804500Y480000D02*
D03*
X847500D02*
D03*
D21*
X1233000Y65500D02*
D03*
Y94500D02*
D03*
X1292000Y545500D02*
D03*
Y516500D02*
D03*
X1316000Y545500D02*
D03*
Y516500D02*
D03*
X1108000Y65000D02*
D03*
Y93000D02*
D03*
X1081000Y65000D02*
D03*
Y95000D02*
D03*
X1208750Y94000D02*
D03*
Y65000D02*
D03*
X1184000Y509500D02*
D03*
Y480500D02*
D03*
X1154000Y479500D02*
D03*
Y508500D02*
D03*
X328000Y74500D02*
D03*
Y103500D02*
D03*
D22*
X1203500Y122000D02*
D03*
X1236500D02*
D03*
X1315500Y490000D02*
D03*
X1282500D02*
D03*
X1111000Y122000D02*
D03*
X1077000D02*
D03*
X1155500Y453000D02*
D03*
X1188500D02*
D03*
X288500Y567000D02*
D03*
X321500D02*
D03*
D23*
X1301000Y229500D02*
D03*
Y186500D02*
D03*
X1311000Y362500D02*
D03*
Y405500D02*
D03*
X1128000Y419500D02*
D03*
Y376500D02*
D03*
X1092000Y420500D02*
D03*
Y377500D02*
D03*
X830000Y204500D02*
D03*
Y161500D02*
D03*
Y126500D02*
D03*
Y83500D02*
D03*
Y345500D02*
D03*
Y302500D02*
D03*
Y420500D02*
D03*
Y377500D02*
D03*
D24*
X1234000Y331100D02*
D03*
Y314900D02*
D03*
X1206000Y157900D02*
D03*
Y174100D02*
D03*
X1203000Y390900D02*
D03*
Y407100D02*
D03*
X480000Y561900D02*
D03*
Y578100D02*
D03*
X166040Y493640D02*
D03*
Y477440D02*
D03*
X143000Y494100D02*
D03*
Y477900D02*
D03*
X728000Y541900D02*
D03*
Y558100D02*
D03*
X886000Y625900D02*
D03*
Y642100D02*
D03*
X812000Y687100D02*
D03*
Y670900D02*
D03*
X905042Y626103D02*
D03*
Y642303D02*
D03*
X793000Y687100D02*
D03*
Y670900D02*
D03*
D25*
X1220950Y362880D02*
D03*
X1233650D02*
D03*
X1246350D02*
D03*
X1259050D02*
D03*
Y417120D02*
D03*
X1246350D02*
D03*
X1233650D02*
D03*
X1220950D02*
D03*
X1184050Y217120D02*
D03*
X1171350D02*
D03*
X1158650D02*
D03*
X1145950D02*
D03*
Y162880D02*
D03*
X1158650D02*
D03*
X1171325Y162939D02*
D03*
X1184050Y162880D02*
D03*
D26*
X1150750Y330100D02*
D03*
Y317400D02*
D03*
Y304700D02*
D03*
Y292000D02*
D03*
Y279300D02*
D03*
Y266600D02*
D03*
Y253900D02*
D03*
X1205250D02*
D03*
Y266600D02*
D03*
Y279300D02*
D03*
Y292000D02*
D03*
Y304700D02*
D03*
Y317400D02*
D03*
Y330100D02*
D03*
D27*
X1179000Y587500D02*
D03*
Y568500D02*
D03*
X726000Y429000D02*
D03*
Y448000D02*
D03*
X1166000Y792500D02*
D03*
Y773500D02*
D03*
X1167000Y742500D02*
D03*
Y723500D02*
D03*
X726000Y412500D02*
D03*
Y393500D02*
D03*
X130000Y349500D02*
D03*
Y330500D02*
D03*
X80000Y350500D02*
D03*
Y331500D02*
D03*
X54000D02*
D03*
Y350500D02*
D03*
X120320Y495040D02*
D03*
Y476040D02*
D03*
X191900Y475040D02*
D03*
Y494040D02*
D03*
X317000Y17500D02*
D03*
Y36500D02*
D03*
X270000Y563500D02*
D03*
Y544500D02*
D03*
X407000Y838500D02*
D03*
Y857500D02*
D03*
X432000Y838500D02*
D03*
Y857500D02*
D03*
X45000Y120500D02*
D03*
Y139500D02*
D03*
X75000D02*
D03*
Y120500D02*
D03*
D28*
X1047500Y807700D02*
D03*
Y782300D02*
D03*
X1138500D02*
D03*
Y807700D02*
D03*
X1047500Y722700D02*
D03*
Y697300D02*
D03*
X1138500D02*
D03*
Y722700D02*
D03*
D29*
X499500Y577500D02*
D03*
X518500D02*
D03*
Y550500D02*
D03*
X509000D02*
D03*
X499500D02*
D03*
X683401Y590901D02*
D03*
X673901D02*
D03*
X664401D02*
D03*
Y563901D02*
D03*
X683401D02*
D03*
D30*
X151750Y641000D02*
D03*
X174250D02*
D03*
D31*
X357500Y839000D02*
D03*
X376500D02*
D03*
X457500Y838000D02*
D03*
X476500D02*
D03*
D32*
X288500Y599000D02*
D03*
X317500D02*
D03*
X205000Y153670D02*
D03*
X176000D02*
D03*
X205000Y182880D02*
D03*
X176000D02*
D03*
X205000Y212090D02*
D03*
X176000D02*
D03*
X205000Y241300D02*
D03*
X176000D02*
D03*
D33*
X155000Y538500D02*
D03*
Y571500D02*
D03*
X357000Y70500D02*
D03*
Y103500D02*
D03*
M02*
