G04*
G04 #@! TF.GenerationSoftware,Altium Limited,Altium Designer,22.11.1 (43)*
G04*
G04 Layer_Color=8388736*
%FSLAX44Y44*%
%MOMM*%
G71*
G04*
G04 #@! TF.SameCoordinates,BEA400A9-7B0A-4234-B2B5-4D1F4660E836*
G04*
G04*
G04 #@! TF.FilePolarity,Negative*
G04*
G01*
G75*
%ADD34R,1.3000X0.7000*%
%ADD35R,1.2032X1.6532*%
G04:AMPARAMS|DCode=36|XSize=2.25mm|YSize=3.35mm|CornerRadius=0.3188mm|HoleSize=0mm|Usage=FLASHONLY|Rotation=90.000|XOffset=0mm|YOffset=0mm|HoleType=Round|Shape=RoundedRectangle|*
%AMROUNDEDRECTD36*
21,1,2.2500,2.7125,0,0,90.0*
21,1,1.6125,3.3500,0,0,90.0*
1,1,0.6375,1.3563,0.8063*
1,1,0.6375,1.3563,-0.8063*
1,1,0.6375,-1.3563,-0.8063*
1,1,0.6375,-1.3563,0.8063*
%
%ADD36ROUNDEDRECTD36*%
G04:AMPARAMS|DCode=37|XSize=2.4mm|YSize=1.1mm|CornerRadius=0.3mm|HoleSize=0mm|Usage=FLASHONLY|Rotation=90.000|XOffset=0mm|YOffset=0mm|HoleType=Round|Shape=RoundedRectangle|*
%AMROUNDEDRECTD37*
21,1,2.4000,0.5000,0,0,90.0*
21,1,1.8000,1.1000,0,0,90.0*
1,1,0.6000,0.2500,0.9000*
1,1,0.6000,0.2500,-0.9000*
1,1,0.6000,-0.2500,-0.9000*
1,1,0.6000,-0.2500,0.9000*
%
%ADD37ROUNDEDRECTD37*%
%ADD38R,1.1632X1.5932*%
%ADD39R,2.3532X3.0032*%
%ADD40R,2.5532X1.8032*%
%ADD41R,1.9532X1.2532*%
%ADD42R,1.4532X0.9532*%
%ADD43R,1.8032X2.5532*%
%ADD44R,1.5932X1.1632*%
%ADD45R,0.8532X1.7282*%
%ADD46R,1.7532X0.9032*%
%ADD47R,1.6532X1.2032*%
%ADD48R,2.3032X1.6532*%
G04:AMPARAMS|DCode=49|XSize=0.65mm|YSize=1.1mm|CornerRadius=0.1875mm|HoleSize=0mm|Usage=FLASHONLY|Rotation=0.000|XOffset=0mm|YOffset=0mm|HoleType=Round|Shape=RoundedRectangle|*
%AMROUNDEDRECTD49*
21,1,0.6500,0.7250,0,0,0.0*
21,1,0.2750,1.1000,0,0,0.0*
1,1,0.3750,0.1375,-0.3625*
1,1,0.3750,-0.1375,-0.3625*
1,1,0.3750,-0.1375,0.3625*
1,1,0.3750,0.1375,0.3625*
%
%ADD49ROUNDEDRECTD49*%
G04:AMPARAMS|DCode=50|XSize=0.55mm|YSize=0.95mm|CornerRadius=0.0838mm|HoleSize=0mm|Usage=FLASHONLY|Rotation=90.000|XOffset=0mm|YOffset=0mm|HoleType=Round|Shape=RoundedRectangle|*
%AMROUNDEDRECTD50*
21,1,0.5500,0.7825,0,0,90.0*
21,1,0.3825,0.9500,0,0,90.0*
1,1,0.1675,0.3912,0.1913*
1,1,0.1675,0.3912,-0.1913*
1,1,0.1675,-0.3912,-0.1913*
1,1,0.1675,-0.3912,0.1913*
%
%ADD50ROUNDEDRECTD50*%
%ADD51R,1.4532X1.3032*%
%ADD52R,1.2532X1.9532*%
%ADD53R,0.9532X1.4532*%
%ADD54R,2.2032X2.2032*%
%ADD55C,2.2032*%
%ADD56R,2.3032X3.0032*%
%ADD57O,2.3032X3.0032*%
%ADD58R,1.3032X1.3032*%
%ADD59R,1.7032X1.7032*%
%ADD60C,1.7032*%
%ADD61O,2.2000X2.9000*%
%ADD62R,2.2000X2.9000*%
%ADD63O,2.9000X2.2000*%
%ADD64R,2.9000X2.2000*%
%ADD65R,3.2032X1.6032*%
%ADD66O,3.2032X1.6032*%
%ADD67C,1.3362*%
%ADD68C,4.2032*%
%ADD69C,2.0032*%
%ADD70C,2.4032*%
%ADD71R,2.4032X2.4032*%
%ADD72R,2.0032X2.0032*%
%ADD73C,2.2282*%
%ADD74R,4.2032X4.2032*%
%ADD75O,3.0032X2.3032*%
%ADD76R,3.0032X2.3032*%
%ADD77R,3.2032X3.2032*%
%ADD78C,3.2032*%
%ADD79C,3.0982*%
%ADD80C,2.1832*%
%ADD81R,2.1832X2.1832*%
%ADD82R,2.2032X2.2032*%
%ADD83R,2.4032X2.4032*%
D34*
X178000Y310490D02*
D03*
Y300990D02*
D03*
Y291490D02*
D03*
X203000D02*
D03*
Y310490D02*
D03*
D35*
X1234011Y510011D02*
D03*
X1253011D02*
D03*
X1299500Y105000D02*
D03*
X1280500D02*
D03*
X1129000Y66000D02*
D03*
X1148500D02*
D03*
X1020500Y809000D02*
D03*
X1001500D02*
D03*
X1021500Y723000D02*
D03*
X1002500D02*
D03*
X575032Y654000D02*
D03*
X556032D02*
D03*
X498500Y597000D02*
D03*
X517500D02*
D03*
X523500Y529000D02*
D03*
X504500D02*
D03*
X654500Y628000D02*
D03*
X673500D02*
D03*
X612500Y654000D02*
D03*
X593500D02*
D03*
X628500D02*
D03*
X647500D02*
D03*
X718500Y580000D02*
D03*
X699500D02*
D03*
X293500Y468000D02*
D03*
X312500D02*
D03*
X327500Y535000D02*
D03*
X346500D02*
D03*
X100500Y503000D02*
D03*
X81500D02*
D03*
X143840Y518560D02*
D03*
X162840D02*
D03*
X100500Y481000D02*
D03*
X81500D02*
D03*
X119500Y527000D02*
D03*
X100500D02*
D03*
X82500Y526000D02*
D03*
X63500D02*
D03*
D36*
X166000Y772000D02*
D03*
X66000Y771000D02*
D03*
X780000Y547000D02*
D03*
D37*
X143000Y708000D02*
D03*
X189000D02*
D03*
X166000D02*
D03*
X43000Y707000D02*
D03*
X89000D02*
D03*
X66000D02*
D03*
X803000Y611000D02*
D03*
X757000D02*
D03*
X780000D02*
D03*
D38*
X150900Y797000D02*
D03*
X167100D02*
D03*
X124100Y768000D02*
D03*
X107900D02*
D03*
X124100Y745000D02*
D03*
X107900D02*
D03*
X124100Y722000D02*
D03*
X107900D02*
D03*
X124100Y702000D02*
D03*
X107900D02*
D03*
X933100Y701000D02*
D03*
X916900D02*
D03*
X645100Y675000D02*
D03*
X628900D02*
D03*
X717100Y600000D02*
D03*
X700900D02*
D03*
X700100Y541000D02*
D03*
X683900D02*
D03*
X258900Y836000D02*
D03*
X275100D02*
D03*
X214280Y480730D02*
D03*
X230480D02*
D03*
X214280Y499780D02*
D03*
X230480D02*
D03*
X181900Y340000D02*
D03*
X198100D02*
D03*
X224900Y151000D02*
D03*
X241100D02*
D03*
X90100Y675000D02*
D03*
X73900D02*
D03*
X258900Y856000D02*
D03*
X275100D02*
D03*
X688900Y766000D02*
D03*
X705100D02*
D03*
D39*
X1565450Y37000D02*
D03*
X1614550D02*
D03*
D40*
X1314500Y74000D02*
D03*
X1271500D02*
D03*
X1218500Y224000D02*
D03*
X1261500D02*
D03*
X1317500Y135000D02*
D03*
X1274500D02*
D03*
X1209500Y538000D02*
D03*
X1252500D02*
D03*
X804500Y480000D02*
D03*
X847500D02*
D03*
D41*
X1233000Y65500D02*
D03*
Y94500D02*
D03*
X1292000Y545500D02*
D03*
Y516500D02*
D03*
X1316000Y545500D02*
D03*
Y516500D02*
D03*
X1108000Y65000D02*
D03*
Y93000D02*
D03*
X1081000Y65000D02*
D03*
Y95000D02*
D03*
X1208750Y94000D02*
D03*
Y65000D02*
D03*
X1184000Y509500D02*
D03*
Y480500D02*
D03*
X1154000Y479500D02*
D03*
Y508500D02*
D03*
X328000Y74500D02*
D03*
Y103500D02*
D03*
D42*
X1203500Y122000D02*
D03*
X1236500D02*
D03*
X1315500Y490000D02*
D03*
X1282500D02*
D03*
X1111000Y122000D02*
D03*
X1077000D02*
D03*
X1155500Y453000D02*
D03*
X1188500D02*
D03*
X288500Y567000D02*
D03*
X321500D02*
D03*
D43*
X1301000Y229500D02*
D03*
Y186500D02*
D03*
X1311000Y362500D02*
D03*
Y405500D02*
D03*
X1128000Y419500D02*
D03*
Y376500D02*
D03*
X1092000Y420500D02*
D03*
Y377500D02*
D03*
X830000Y204500D02*
D03*
Y161500D02*
D03*
Y126500D02*
D03*
Y83500D02*
D03*
Y345500D02*
D03*
Y302500D02*
D03*
Y420500D02*
D03*
Y377500D02*
D03*
D44*
X1234000Y331100D02*
D03*
Y314900D02*
D03*
X1206000Y157900D02*
D03*
Y174100D02*
D03*
X1203000Y390900D02*
D03*
Y407100D02*
D03*
X480000Y561900D02*
D03*
Y578100D02*
D03*
X166040Y493640D02*
D03*
Y477440D02*
D03*
X143000Y494100D02*
D03*
Y477900D02*
D03*
X728000Y541900D02*
D03*
Y558100D02*
D03*
X886000Y625900D02*
D03*
Y642100D02*
D03*
X812000Y687100D02*
D03*
Y670900D02*
D03*
X905042Y626103D02*
D03*
Y642303D02*
D03*
X793000Y687100D02*
D03*
Y670900D02*
D03*
D45*
X1220950Y362880D02*
D03*
X1233650D02*
D03*
X1246350D02*
D03*
X1259050D02*
D03*
Y417120D02*
D03*
X1246350D02*
D03*
X1233650D02*
D03*
X1220950D02*
D03*
X1184050Y217120D02*
D03*
X1171350D02*
D03*
X1158650D02*
D03*
X1145950D02*
D03*
Y162880D02*
D03*
X1158650D02*
D03*
X1171325Y162939D02*
D03*
X1184050Y162880D02*
D03*
D46*
X1150750Y330100D02*
D03*
Y317400D02*
D03*
Y304700D02*
D03*
Y292000D02*
D03*
Y279300D02*
D03*
Y266600D02*
D03*
Y253900D02*
D03*
X1205250D02*
D03*
Y266600D02*
D03*
Y279300D02*
D03*
Y292000D02*
D03*
Y304700D02*
D03*
Y317400D02*
D03*
Y330100D02*
D03*
D47*
X1179000Y587500D02*
D03*
Y568500D02*
D03*
X726000Y429000D02*
D03*
Y448000D02*
D03*
X1166000Y792500D02*
D03*
Y773500D02*
D03*
X1167000Y742500D02*
D03*
Y723500D02*
D03*
X726000Y412500D02*
D03*
Y393500D02*
D03*
X130000Y349500D02*
D03*
Y330500D02*
D03*
X80000Y350500D02*
D03*
Y331500D02*
D03*
X54000D02*
D03*
Y350500D02*
D03*
X120320Y495040D02*
D03*
Y476040D02*
D03*
X191900Y475040D02*
D03*
Y494040D02*
D03*
X317000Y17500D02*
D03*
Y36500D02*
D03*
X270000Y563500D02*
D03*
Y544500D02*
D03*
X407000Y838500D02*
D03*
Y857500D02*
D03*
X432000Y838500D02*
D03*
Y857500D02*
D03*
X45000Y120500D02*
D03*
Y139500D02*
D03*
X75000D02*
D03*
Y120500D02*
D03*
D48*
X1047500Y807700D02*
D03*
Y782300D02*
D03*
X1138500D02*
D03*
Y807700D02*
D03*
X1047500Y722700D02*
D03*
Y697300D02*
D03*
X1138500D02*
D03*
Y722700D02*
D03*
D49*
X499500Y577500D02*
D03*
X518500D02*
D03*
Y550500D02*
D03*
X509000D02*
D03*
X499500D02*
D03*
X683401Y590901D02*
D03*
X673901D02*
D03*
X664401D02*
D03*
Y563901D02*
D03*
X683401D02*
D03*
D50*
X151750Y641000D02*
D03*
X174250D02*
D03*
D51*
X357500Y839000D02*
D03*
X376500D02*
D03*
X457500Y838000D02*
D03*
X476500D02*
D03*
D52*
X288500Y599000D02*
D03*
X317500D02*
D03*
X205000Y153670D02*
D03*
X176000D02*
D03*
X205000Y182880D02*
D03*
X176000D02*
D03*
X205000Y212090D02*
D03*
X176000D02*
D03*
X205000Y241300D02*
D03*
X176000D02*
D03*
D53*
X155000Y538500D02*
D03*
Y571500D02*
D03*
X357000Y70500D02*
D03*
Y103500D02*
D03*
D54*
X110000Y643000D02*
D03*
X1362000Y482000D02*
D03*
X901000Y679000D02*
D03*
X902000Y575000D02*
D03*
D55*
X951000Y679000D02*
D03*
X952000Y575000D02*
D03*
X60000Y643000D02*
D03*
X1389000Y193000D02*
D03*
X1489000D02*
D03*
Y63000D02*
D03*
X1389000D02*
D03*
X1438200Y482000D02*
D03*
X1595000Y178000D02*
D03*
Y127200D02*
D03*
X1555000Y293000D02*
D03*
Y568000D02*
D03*
X1183000Y388000D02*
D03*
X55100Y564418D02*
D03*
X80500D02*
D03*
X105900D02*
D03*
X79680Y455390D02*
D03*
X105080D02*
D03*
X130480D02*
D03*
X155880D02*
D03*
X181280D02*
D03*
X206680D02*
D03*
X232080D02*
D03*
Y375990D02*
D03*
X206680D02*
D03*
X181280D02*
D03*
X155880D02*
D03*
X130480D02*
D03*
X105080D02*
D03*
X79680D02*
D03*
X54280D02*
D03*
X801000Y857400D02*
D03*
X705000Y561000D02*
D03*
X1319000Y108000D02*
D03*
X1280000Y328000D02*
D03*
X159000Y335000D02*
D03*
X1422000Y430000D02*
D03*
X1022000Y784000D02*
D03*
X459000Y561000D02*
D03*
X1283000Y367000D02*
D03*
X43000Y683000D02*
D03*
X143000Y684000D02*
D03*
X122000Y797000D02*
D03*
X228000Y788000D02*
D03*
X1335000Y298000D02*
D03*
X1282000D02*
D03*
X1255000Y311000D02*
D03*
X1329000Y255000D02*
D03*
X17000Y755000D02*
D03*
X204000Y766000D02*
D03*
X117000Y288000D02*
D03*
X558000Y760000D02*
D03*
X500000Y629000D02*
D03*
X1127000Y447000D02*
D03*
X1121000Y325000D02*
D03*
X1378000Y320000D02*
D03*
X1146000Y237000D02*
D03*
X717000Y619000D02*
D03*
X292000Y837000D02*
D03*
X1138000Y674000D02*
D03*
Y761000D02*
D03*
X874000Y681000D02*
D03*
X669000Y652000D02*
D03*
X652000Y551000D02*
D03*
X798000Y642000D02*
D03*
X801000Y908000D02*
D03*
X1024000Y697000D02*
D03*
X54000Y480500D02*
D03*
X238000Y323000D02*
D03*
X340000Y355000D02*
D03*
X342000Y243000D02*
D03*
X314000Y493000D02*
D03*
X291000Y19000D02*
D03*
D56*
X1292800Y575000D02*
D03*
X1134400D02*
D03*
X1083600Y40460D02*
D03*
X1242000Y39000D02*
D03*
X289000Y382000D02*
D03*
X410000Y575000D02*
D03*
X360000Y35000D02*
D03*
D57*
X1267400Y575000D02*
D03*
X1242000D02*
D03*
X1109000D02*
D03*
X1083600D02*
D03*
X1109000Y38230D02*
D03*
X1134400D02*
D03*
X1267400Y39000D02*
D03*
X1292800D02*
D03*
X339800Y382000D02*
D03*
X314400D02*
D03*
X359200Y575000D02*
D03*
X384600D02*
D03*
X410800Y35000D02*
D03*
X385400D02*
D03*
D58*
X1183000Y408000D02*
D03*
D59*
X1236000Y181000D02*
D03*
X242570Y182810D02*
D03*
D60*
X1236000Y161000D02*
D03*
X242570Y257810D02*
D03*
D61*
X291200Y435000D02*
D03*
X314100D02*
D03*
D62*
X337000D02*
D03*
D63*
X245085Y542500D02*
D03*
Y565400D02*
D03*
D64*
Y588300D02*
D03*
D65*
X631100Y628100D02*
D03*
D66*
Y602700D02*
D03*
Y577300D02*
D03*
Y551900D02*
D03*
X554900D02*
D03*
Y577300D02*
D03*
D67*
Y602700D02*
D03*
Y628100D02*
D03*
D68*
X468000Y150400D02*
D03*
X772800Y125000D02*
D03*
Y379000D02*
D03*
Y480600D02*
D03*
X468000D02*
D03*
Y429800D02*
D03*
Y328200D02*
D03*
Y277400D02*
D03*
Y175800D02*
D03*
Y302800D02*
D03*
X466937Y456465D02*
D03*
D69*
X736300Y889000D02*
D03*
X710900D02*
D03*
X685500D02*
D03*
X660100D02*
D03*
X634700D02*
D03*
X558500D02*
D03*
X533100D02*
D03*
X507700D02*
D03*
X482300D02*
D03*
X456900D02*
D03*
X380700D02*
D03*
X355300D02*
D03*
X329900D02*
D03*
X304500D02*
D03*
X279100D02*
D03*
X279100Y736948D02*
D03*
X304500D02*
D03*
X329900D02*
D03*
X380700D02*
D03*
X456900D02*
D03*
X482300D02*
D03*
X533100D02*
D03*
X558500D02*
D03*
X583900D02*
D03*
X609300D02*
D03*
X634700D02*
D03*
X660100D02*
D03*
X736300D02*
D03*
D70*
X609300Y889000D02*
D03*
X583900D02*
D03*
X431500D02*
D03*
X406100D02*
D03*
X355300Y736948D02*
D03*
X406100D02*
D03*
X431500D02*
D03*
X507700D02*
D03*
X685500D02*
D03*
X710900D02*
D03*
X801000Y882800D02*
D03*
D71*
X253700Y889000D02*
D03*
D72*
X253700Y736948D02*
D03*
D73*
X772800Y175800D02*
D03*
Y226600D02*
D03*
Y277400D02*
D03*
Y328200D02*
D03*
Y429800D02*
D03*
X468000Y379000D02*
D03*
Y226600D02*
D03*
D74*
Y125000D02*
D03*
D75*
X205000Y590800D02*
D03*
Y565400D02*
D03*
X176000Y62400D02*
D03*
Y87800D02*
D03*
D76*
X205000Y540000D02*
D03*
X176000Y37000D02*
D03*
D77*
X929000Y266000D02*
D03*
Y436000D02*
D03*
Y98000D02*
D03*
D78*
X1004000Y266000D02*
D03*
Y436000D02*
D03*
Y98000D02*
D03*
D79*
X115000Y100000D02*
D03*
Y182600D02*
D03*
D80*
X837960Y688900D02*
D03*
Y661900D02*
D03*
D81*
Y634900D02*
D03*
D82*
X54280Y455390D02*
D03*
D83*
X801000Y832000D02*
D03*
M02*
