G04*
G04 #@! TF.GenerationSoftware,Altium Limited,Altium Designer,22.11.1 (43)*
G04*
G04 Layer_Color=65535*
%FSLAX44Y44*%
%MOMM*%
G71*
G04*
G04 #@! TF.SameCoordinates,BEA400A9-7B0A-4234-B2B5-4D1F4660E836*
G04*
G04*
G04 #@! TF.FilePolarity,Positive*
G04*
G01*
G75*
%ADD10C,0.2540*%
%ADD11C,0.1000*%
%ADD12C,0.2000*%
%ADD13C,0.1500*%
D10*
X500292Y561714D02*
G03*
X500292Y561714I-1488J0D01*
G01*
X685585Y579687D02*
G03*
X685585Y579687I-1488J0D01*
G01*
X1223264Y527812D02*
Y543047D01*
X1230882D01*
X1233421Y540508D01*
Y535429D01*
X1230882Y532890D01*
X1223264D01*
X1228342D02*
X1233421Y527812D01*
X1248656D02*
X1238499D01*
X1248656Y537969D01*
Y540508D01*
X1246117Y543047D01*
X1241038D01*
X1238499Y540508D01*
X1253734Y530351D02*
X1256273Y527812D01*
X1261352D01*
X1263891Y530351D01*
Y540508D01*
X1261352Y543047D01*
X1256273D01*
X1253734Y540508D01*
Y537969D01*
X1256273Y535429D01*
X1263891D01*
X145796Y808223D02*
Y792988D01*
X153413D01*
X155953Y795527D01*
Y805684D01*
X153413Y808223D01*
X145796D01*
X161031Y792988D02*
Y803145D01*
X166109Y808223D01*
X171188Y803145D01*
Y792988D01*
Y800605D01*
X161031D01*
X186423Y792988D02*
X176266D01*
X186423Y803145D01*
Y805684D01*
X183884Y808223D01*
X178805D01*
X176266Y805684D01*
X150111Y826004D02*
X147571Y828543D01*
X142493D01*
X139954Y826004D01*
Y815847D01*
X142493Y813308D01*
X147571D01*
X150111Y815847D01*
X155189Y813308D02*
X160267D01*
X157728D01*
Y828543D01*
X155189Y826004D01*
X167885Y815847D02*
X170424Y813308D01*
X175502D01*
X178042Y815847D01*
Y826004D01*
X175502Y828543D01*
X170424D01*
X167885Y826004D01*
Y823465D01*
X170424Y820926D01*
X178042D01*
X48260Y807207D02*
Y791972D01*
X55877D01*
X58417Y794511D01*
Y804668D01*
X55877Y807207D01*
X48260D01*
X63495Y791972D02*
Y802129D01*
X68573Y807207D01*
X73652Y802129D01*
Y791972D01*
Y799589D01*
X63495D01*
X78730Y791972D02*
X83808D01*
X81269D01*
Y807207D01*
X78730Y804668D01*
X107185Y797048D02*
X104646Y799587D01*
X99567D01*
X97028Y797048D01*
Y786891D01*
X99567Y784352D01*
X104646D01*
X107185Y786891D01*
X112263Y784352D02*
X117341D01*
X114802D01*
Y799587D01*
X112263Y797048D01*
X135116Y799587D02*
X130037Y797048D01*
X124959Y791970D01*
Y786891D01*
X127498Y784352D01*
X132577D01*
X135116Y786891D01*
Y789430D01*
X132577Y791970D01*
X124959D01*
X107185Y774188D02*
X104646Y776727D01*
X99567D01*
X97028Y774188D01*
Y764031D01*
X99567Y761492D01*
X104646D01*
X107185Y764031D01*
X112263Y761492D02*
X117341D01*
X114802D01*
Y776727D01*
X112263Y774188D01*
X135116Y776727D02*
X124959D01*
Y769109D01*
X130037Y771649D01*
X132577D01*
X135116Y769109D01*
Y764031D01*
X132577Y761492D01*
X127498D01*
X124959Y764031D01*
X107185Y751074D02*
X104646Y753613D01*
X99567D01*
X97028Y751074D01*
Y740917D01*
X99567Y738378D01*
X104646D01*
X107185Y740917D01*
X112263Y738378D02*
X117341D01*
X114802D01*
Y753613D01*
X112263Y751074D01*
X124959Y753613D02*
X135116D01*
Y751074D01*
X124959Y740917D01*
Y738378D01*
X107185Y731008D02*
X104646Y733547D01*
X99567D01*
X97028Y731008D01*
Y720851D01*
X99567Y718312D01*
X104646D01*
X107185Y720851D01*
X112263Y718312D02*
X117341D01*
X114802D01*
Y733547D01*
X112263Y731008D01*
X124959D02*
X127498Y733547D01*
X132577D01*
X135116Y731008D01*
Y728469D01*
X132577Y725929D01*
X135116Y723390D01*
Y720851D01*
X132577Y718312D01*
X127498D01*
X124959Y720851D01*
Y723390D01*
X127498Y725929D01*
X124959Y728469D01*
Y731008D01*
X127498Y725929D02*
X132577D01*
X1564637Y76703D02*
X1554480D01*
Y69085D01*
X1559558D01*
X1554480D01*
Y61468D01*
X1569715D02*
X1574793D01*
X1572254D01*
Y76703D01*
X1569715Y74164D01*
X1274064Y113787D02*
Y98552D01*
X1281682D01*
X1284221Y101091D01*
Y111248D01*
X1281682Y113787D01*
X1274064D01*
X1289299Y98552D02*
X1294377D01*
X1291838D01*
Y113787D01*
X1289299Y111248D01*
X1309612Y98552D02*
Y113787D01*
X1301995Y106170D01*
X1312152D01*
X1269746Y122936D02*
Y138171D01*
X1277364D01*
X1279903Y135632D01*
Y130554D01*
X1277364Y128014D01*
X1269746D01*
X1274824D02*
X1279903Y122936D01*
X1292599D02*
Y138171D01*
X1284981Y130554D01*
X1295138D01*
X1300216Y135632D02*
X1302755Y138171D01*
X1307834D01*
X1310373Y135632D01*
Y125475D01*
X1307834Y122936D01*
X1302755D01*
X1300216Y125475D01*
Y135632D01*
X1220978Y263901D02*
Y248666D01*
X1228596D01*
X1231135Y251205D01*
Y261362D01*
X1228596Y263901D01*
X1220978D01*
X1236213Y248666D02*
X1241291D01*
X1238752D01*
Y263901D01*
X1236213Y261362D01*
X1248909Y251205D02*
X1251448Y248666D01*
X1256526D01*
X1259066Y251205D01*
Y261362D01*
X1256526Y263901D01*
X1251448D01*
X1248909Y261362D01*
Y258823D01*
X1251448Y256283D01*
X1259066D01*
X1212596Y110236D02*
Y125471D01*
X1220213D01*
X1222753Y122932D01*
Y117853D01*
X1220213Y115314D01*
X1212596D01*
X1217674D02*
X1222753Y110236D01*
X1227831Y122932D02*
X1230370Y125471D01*
X1235449D01*
X1237988Y122932D01*
Y120393D01*
X1235449Y117853D01*
X1232909D01*
X1235449D01*
X1237988Y115314D01*
Y112775D01*
X1235449Y110236D01*
X1230370D01*
X1227831Y112775D01*
X1243066Y122932D02*
X1245605Y125471D01*
X1250684D01*
X1253223Y122932D01*
Y120393D01*
X1250684Y117853D01*
X1253223Y115314D01*
Y112775D01*
X1250684Y110236D01*
X1245605D01*
X1243066Y112775D01*
Y115314D01*
X1245605Y117853D01*
X1243066Y120393D01*
Y122932D01*
X1245605Y117853D02*
X1250684D01*
X1200912Y161793D02*
Y146558D01*
X1208530D01*
X1211069Y149097D01*
Y159254D01*
X1208530Y161793D01*
X1200912D01*
X1216147Y146558D02*
X1221225D01*
X1218686D01*
Y161793D01*
X1216147Y159254D01*
X1228843D02*
X1231382Y161793D01*
X1236460D01*
X1239000Y159254D01*
Y156715D01*
X1236460Y154176D01*
X1233921D01*
X1236460D01*
X1239000Y151636D01*
Y149097D01*
X1236460Y146558D01*
X1231382D01*
X1228843Y149097D01*
X1281938Y266949D02*
Y251714D01*
X1289556D01*
X1292095Y254253D01*
Y264410D01*
X1289556Y266949D01*
X1281938D01*
X1297173Y251714D02*
X1302251D01*
X1299712D01*
Y266949D01*
X1297173Y264410D01*
X1309869D02*
X1312408Y266949D01*
X1317487D01*
X1320026Y264410D01*
Y261871D01*
X1317487Y259331D01*
X1320026Y256792D01*
Y254253D01*
X1317487Y251714D01*
X1312408D01*
X1309869Y254253D01*
Y256792D01*
X1312408Y259331D01*
X1309869Y261871D01*
Y264410D01*
X1312408Y259331D02*
X1317487D01*
X1275588Y174747D02*
Y159512D01*
X1283206D01*
X1285745Y162051D01*
Y172208D01*
X1283206Y174747D01*
X1275588D01*
X1300980Y159512D02*
X1290823D01*
X1300980Y169669D01*
Y172208D01*
X1298441Y174747D01*
X1293362D01*
X1290823Y172208D01*
X1306058D02*
X1308597Y174747D01*
X1313676D01*
X1316215Y172208D01*
Y162051D01*
X1313676Y159512D01*
X1308597D01*
X1306058Y162051D01*
Y172208D01*
X1271778Y561086D02*
Y576321D01*
X1279396D01*
X1281935Y573782D01*
Y568703D01*
X1279396Y566164D01*
X1271778D01*
X1276856D02*
X1281935Y561086D01*
X1297170D02*
X1287013D01*
X1297170Y571243D01*
Y573782D01*
X1294631Y576321D01*
X1289552D01*
X1287013Y573782D01*
X1302248D02*
X1304787Y576321D01*
X1309866D01*
X1312405Y573782D01*
Y571243D01*
X1309866Y568703D01*
X1312405Y566164D01*
Y563625D01*
X1309866Y561086D01*
X1304787D01*
X1302248Y563625D01*
Y566164D01*
X1304787Y568703D01*
X1302248Y571243D01*
Y573782D01*
X1304787Y568703D02*
X1309866D01*
X1295654Y561086D02*
Y576321D01*
X1303271D01*
X1305811Y573782D01*
Y568703D01*
X1303271Y566164D01*
X1295654D01*
X1300732D02*
X1305811Y561086D01*
X1321046D02*
X1310889D01*
X1321046Y571243D01*
Y573782D01*
X1318507Y576321D01*
X1313428D01*
X1310889Y573782D01*
X1326124Y576321D02*
X1336281D01*
Y573782D01*
X1326124Y563625D01*
Y561086D01*
X1291844Y442971D02*
Y427736D01*
X1299462D01*
X1302001Y430275D01*
Y440432D01*
X1299462Y442971D01*
X1291844D01*
X1307079Y427736D02*
X1312157D01*
X1309618D01*
Y442971D01*
X1307079Y440432D01*
X1319775Y442971D02*
X1329932D01*
Y440432D01*
X1319775Y430275D01*
Y427736D01*
X1223769Y357882D02*
X1221229Y360421D01*
X1216151D01*
X1213612Y357882D01*
Y347725D01*
X1216151Y345186D01*
X1221229D01*
X1223769Y347725D01*
X1239004Y345186D02*
X1228847D01*
X1239004Y355343D01*
Y357882D01*
X1236465Y360421D01*
X1231386D01*
X1228847Y357882D01*
X1244082Y360421D02*
X1254239D01*
Y357882D01*
X1244082Y347725D01*
Y345186D01*
X1279906Y529839D02*
Y514604D01*
X1287523D01*
X1290063Y517143D01*
Y527300D01*
X1287523Y529839D01*
X1279906D01*
X1295141Y514604D02*
X1300219D01*
X1297680D01*
Y529839D01*
X1295141Y527300D01*
X1307837D02*
X1310376Y529839D01*
X1315455D01*
X1317994Y527300D01*
Y517143D01*
X1315455Y514604D01*
X1310376D01*
X1307837Y517143D01*
Y527300D01*
X1221002Y450257D02*
X1226080D01*
X1223541D01*
Y435022D01*
X1221002D01*
X1226080D01*
X1243855Y447718D02*
X1241315Y450257D01*
X1236237D01*
X1233698Y447718D01*
Y437561D01*
X1236237Y435022D01*
X1241315D01*
X1243855Y437561D01*
X1256551Y435022D02*
Y450257D01*
X1248933Y442640D01*
X1259090D01*
X1218184Y577845D02*
Y562610D01*
X1225801D01*
X1228341Y565149D01*
Y575306D01*
X1225801Y577845D01*
X1218184D01*
X1233419Y565149D02*
X1235958Y562610D01*
X1241037D01*
X1243576Y565149D01*
Y575306D01*
X1241037Y577845D01*
X1235958D01*
X1233419Y575306D01*
Y572767D01*
X1235958Y570228D01*
X1243576D01*
X1146072Y250359D02*
X1151150D01*
X1148611D01*
Y235124D01*
X1146072D01*
X1151150D01*
X1168925Y247820D02*
X1166385Y250359D01*
X1161307D01*
X1158768Y247820D01*
Y237663D01*
X1161307Y235124D01*
X1166385D01*
X1168925Y237663D01*
X1184160Y250359D02*
X1174003D01*
Y242742D01*
X1179081Y245281D01*
X1181620D01*
X1184160Y242742D01*
Y237663D01*
X1181620Y235124D01*
X1176542D01*
X1174003Y237663D01*
X1195829Y200910D02*
X1193289Y203449D01*
X1188211D01*
X1185672Y200910D01*
Y190753D01*
X1188211Y188214D01*
X1193289D01*
X1195829Y190753D01*
X1211064Y188214D02*
X1200907D01*
X1211064Y198371D01*
Y200910D01*
X1208525Y203449D01*
X1203446D01*
X1200907Y200910D01*
X1226299Y203449D02*
X1216142D01*
Y195832D01*
X1221220Y198371D01*
X1223760D01*
X1226299Y195832D01*
Y190753D01*
X1223760Y188214D01*
X1218681D01*
X1216142Y190753D01*
X1087628Y109220D02*
Y124455D01*
X1095246D01*
X1097785Y121916D01*
Y116838D01*
X1095246Y114298D01*
X1087628D01*
X1092706D02*
X1097785Y109220D01*
X1102863Y121916D02*
X1105402Y124455D01*
X1110481D01*
X1113020Y121916D01*
Y119377D01*
X1110481Y116838D01*
X1107941D01*
X1110481D01*
X1113020Y114298D01*
Y111759D01*
X1110481Y109220D01*
X1105402D01*
X1102863Y111759D01*
X1118098Y121916D02*
X1120637Y124455D01*
X1125716D01*
X1128255Y121916D01*
Y119377D01*
X1125716Y116838D01*
X1123176D01*
X1125716D01*
X1128255Y114298D01*
Y111759D01*
X1125716Y109220D01*
X1120637D01*
X1118098Y111759D01*
X1060704Y110236D02*
Y125471D01*
X1068322D01*
X1070861Y122932D01*
Y117853D01*
X1068322Y115314D01*
X1060704D01*
X1065782D02*
X1070861Y110236D01*
X1075939Y122932D02*
X1078478Y125471D01*
X1083557D01*
X1086096Y122932D01*
Y120393D01*
X1083557Y117853D01*
X1081017D01*
X1083557D01*
X1086096Y115314D01*
Y112775D01*
X1083557Y110236D01*
X1078478D01*
X1075939Y112775D01*
X1101331Y125471D02*
X1091174D01*
Y117853D01*
X1096253Y120393D01*
X1098792D01*
X1101331Y117853D01*
Y112775D01*
X1098792Y110236D01*
X1093713D01*
X1091174Y112775D01*
X1074928Y161793D02*
Y146558D01*
X1082545D01*
X1085085Y149097D01*
Y159254D01*
X1082545Y161793D01*
X1074928D01*
X1090163Y146558D02*
X1095241D01*
X1092702D01*
Y161793D01*
X1090163Y159254D01*
X1113016Y146558D02*
X1102859D01*
X1113016Y156715D01*
Y159254D01*
X1110477Y161793D01*
X1105398D01*
X1102859Y159254D01*
X1118616Y83820D02*
Y99055D01*
X1126234D01*
X1128773Y96516D01*
Y91438D01*
X1126234Y88898D01*
X1118616D01*
X1123694D02*
X1128773Y83820D01*
X1133851Y96516D02*
X1136390Y99055D01*
X1141469D01*
X1144008Y96516D01*
Y93977D01*
X1141469Y91438D01*
X1138929D01*
X1141469D01*
X1144008Y88898D01*
Y86359D01*
X1141469Y83820D01*
X1136390D01*
X1133851Y86359D01*
X1149086Y99055D02*
X1159243D01*
Y96516D01*
X1149086Y86359D01*
Y83820D01*
X1188466Y109728D02*
Y124963D01*
X1196084D01*
X1198623Y122424D01*
Y117346D01*
X1196084Y114806D01*
X1188466D01*
X1193544D02*
X1198623Y109728D01*
X1203701Y122424D02*
X1206240Y124963D01*
X1211319D01*
X1213858Y122424D01*
Y119885D01*
X1211319Y117346D01*
X1208779D01*
X1211319D01*
X1213858Y114806D01*
Y112267D01*
X1211319Y109728D01*
X1206240D01*
X1203701Y112267D01*
X1218936D02*
X1221475Y109728D01*
X1226554D01*
X1229093Y112267D01*
Y122424D01*
X1226554Y124963D01*
X1221475D01*
X1218936Y122424D01*
Y119885D01*
X1221475Y117346D01*
X1229093D01*
X1155446Y492755D02*
Y477520D01*
X1163064D01*
X1165603Y480059D01*
Y490216D01*
X1163064Y492755D01*
X1155446D01*
X1170681Y477520D02*
X1175759D01*
X1173220D01*
Y492755D01*
X1170681Y490216D01*
X1183377Y477520D02*
X1188455D01*
X1185916D01*
Y492755D01*
X1183377Y490216D01*
X1163574Y525018D02*
Y540253D01*
X1171191D01*
X1173731Y537714D01*
Y532635D01*
X1171191Y530096D01*
X1163574D01*
X1168652D02*
X1173731Y525018D01*
X1178809Y537714D02*
X1181348Y540253D01*
X1186427D01*
X1188966Y537714D01*
Y535175D01*
X1186427Y532635D01*
X1183887D01*
X1186427D01*
X1188966Y530096D01*
Y527557D01*
X1186427Y525018D01*
X1181348D01*
X1178809Y527557D01*
X1201662Y525018D02*
Y540253D01*
X1194044Y532635D01*
X1204201D01*
X1133602Y524002D02*
Y539237D01*
X1141219D01*
X1143759Y536698D01*
Y531619D01*
X1141219Y529080D01*
X1133602D01*
X1138680D02*
X1143759Y524002D01*
X1148837Y536698D02*
X1151376Y539237D01*
X1156455D01*
X1158994Y536698D01*
Y534159D01*
X1156455Y531619D01*
X1153915D01*
X1156455D01*
X1158994Y529080D01*
Y526541D01*
X1156455Y524002D01*
X1151376D01*
X1148837Y526541D01*
X1174229Y524002D02*
X1164072D01*
X1174229Y534159D01*
Y536698D01*
X1171690Y539237D01*
X1166611D01*
X1164072Y536698D01*
X1165352Y361437D02*
Y346202D01*
X1172970D01*
X1175509Y348741D01*
Y351280D01*
X1172970Y353820D01*
X1165352D01*
X1172970D01*
X1175509Y356359D01*
Y358898D01*
X1172970Y361437D01*
X1165352D01*
X1190744Y346202D02*
X1180587D01*
X1190744Y356359D01*
Y358898D01*
X1188205Y361437D01*
X1183126D01*
X1180587Y358898D01*
X1158748Y602996D02*
Y618231D01*
X1166366D01*
X1168905Y615692D01*
Y610614D01*
X1166366Y608074D01*
X1158748D01*
X1163826D02*
X1168905Y602996D01*
X1173983Y615692D02*
X1176522Y618231D01*
X1181601D01*
X1184140Y615692D01*
Y613153D01*
X1181601Y610614D01*
X1179061D01*
X1181601D01*
X1184140Y608074D01*
Y605535D01*
X1181601Y602996D01*
X1176522D01*
X1173983Y605535D01*
X1199375Y618231D02*
X1194296Y615692D01*
X1189218Y610614D01*
Y605535D01*
X1191757Y602996D01*
X1196836D01*
X1199375Y605535D01*
Y608074D01*
X1196836Y610614D01*
X1189218D01*
X1194051Y434082D02*
X1191512Y436621D01*
X1186433D01*
X1183894Y434082D01*
Y423925D01*
X1186433Y421386D01*
X1191512D01*
X1194051Y423925D01*
X1199129Y421386D02*
X1204207D01*
X1201668D01*
Y436621D01*
X1199129Y434082D01*
X1221982Y421386D02*
X1211825D01*
X1221982Y431543D01*
Y434082D01*
X1219443Y436621D01*
X1214364D01*
X1211825Y434082D01*
X1108964Y456941D02*
Y441706D01*
X1116581D01*
X1119121Y444245D01*
Y454402D01*
X1116581Y456941D01*
X1108964D01*
X1124199Y441706D02*
X1129277D01*
X1126738D01*
Y456941D01*
X1124199Y454402D01*
X1147052Y456941D02*
X1136895D01*
Y449324D01*
X1141973Y451863D01*
X1144512D01*
X1147052Y449324D01*
Y444245D01*
X1144512Y441706D01*
X1139434D01*
X1136895Y444245D01*
X1072896Y457957D02*
Y442722D01*
X1080514D01*
X1083053Y445261D01*
Y455418D01*
X1080514Y457957D01*
X1072896D01*
X1088131Y442722D02*
X1093209D01*
X1090670D01*
Y457957D01*
X1088131Y455418D01*
X1110984Y457957D02*
X1105905Y455418D01*
X1100827Y450340D01*
Y445261D01*
X1103366Y442722D01*
X1108445D01*
X1110984Y445261D01*
Y447800D01*
X1108445Y450340D01*
X1100827D01*
X718312Y463296D02*
Y478531D01*
X725929D01*
X728469Y475992D01*
Y470914D01*
X725929Y468374D01*
X718312D01*
X723390D02*
X728469Y463296D01*
X733547D02*
X738625D01*
X736086D01*
Y478531D01*
X733547Y475992D01*
X756400Y463296D02*
X746243D01*
X756400Y473453D01*
Y475992D01*
X753860Y478531D01*
X748782D01*
X746243Y475992D01*
X914905Y729992D02*
X912365Y732531D01*
X907287D01*
X904748Y729992D01*
Y719835D01*
X907287Y717296D01*
X912365D01*
X914905Y719835D01*
X930140Y717296D02*
X919983D01*
X930140Y727453D01*
Y729992D01*
X927601Y732531D01*
X922522D01*
X919983Y729992D01*
X935218Y719835D02*
X937757Y717296D01*
X942836D01*
X945375Y719835D01*
Y729992D01*
X942836Y732531D01*
X937757D01*
X935218Y729992D01*
Y727453D01*
X937757Y724913D01*
X945375D01*
X1082802Y846069D02*
Y830834D01*
X1090419D01*
X1092959Y833373D01*
Y835912D01*
X1090419Y838452D01*
X1082802D01*
X1090419D01*
X1092959Y840991D01*
Y843530D01*
X1090419Y846069D01*
X1082802D01*
X1098037Y830834D02*
X1103115D01*
X1100576D01*
Y846069D01*
X1098037Y843530D01*
X990600Y826770D02*
Y842005D01*
X998217D01*
X1000757Y839466D01*
Y834388D01*
X998217Y831848D01*
X990600D01*
X995678D02*
X1000757Y826770D01*
X1013453D02*
Y842005D01*
X1005835Y834388D01*
X1015992D01*
X1028688Y826770D02*
Y842005D01*
X1021070Y834388D01*
X1031227D01*
X991616Y740918D02*
Y756153D01*
X999233D01*
X1001773Y753614D01*
Y748536D01*
X999233Y745996D01*
X991616D01*
X996694D02*
X1001773Y740918D01*
X1014469D02*
Y756153D01*
X1006851Y748536D01*
X1017008D01*
X1022086Y753614D02*
X1024625Y756153D01*
X1029704D01*
X1032243Y753614D01*
Y751075D01*
X1029704Y748536D01*
X1032243Y745996D01*
Y743457D01*
X1029704Y740918D01*
X1024625D01*
X1022086Y743457D01*
Y745996D01*
X1024625Y748536D01*
X1022086Y751075D01*
Y753614D01*
X1024625Y748536D02*
X1029704D01*
X1080262Y760979D02*
Y745744D01*
X1087879D01*
X1090419Y748283D01*
Y750822D01*
X1087879Y753362D01*
X1080262D01*
X1087879D01*
X1090419Y755901D01*
Y758440D01*
X1087879Y760979D01*
X1080262D01*
X1095497Y758440D02*
X1098036Y760979D01*
X1103115D01*
X1105654Y758440D01*
Y755901D01*
X1103115Y753362D01*
X1100575D01*
X1103115D01*
X1105654Y750822D01*
Y748283D01*
X1103115Y745744D01*
X1098036D01*
X1095497Y748283D01*
X1148334Y807974D02*
Y823209D01*
X1155952D01*
X1158491Y820670D01*
Y815592D01*
X1155952Y813052D01*
X1148334D01*
X1153412D02*
X1158491Y807974D01*
X1171187D02*
Y823209D01*
X1163569Y815592D01*
X1173726D01*
X1178804Y807974D02*
X1183883D01*
X1181343D01*
Y823209D01*
X1178804Y820670D01*
X1146810Y757936D02*
Y773171D01*
X1154427D01*
X1156967Y770632D01*
Y765554D01*
X1154427Y763014D01*
X1146810D01*
X1151888D02*
X1156967Y757936D01*
X1169663D02*
Y773171D01*
X1162045Y765554D01*
X1172202D01*
X1177280Y773171D02*
X1187437D01*
Y770632D01*
X1177280Y760475D01*
Y757936D01*
X545338Y671830D02*
Y687065D01*
X552956D01*
X555495Y684526D01*
Y679447D01*
X552956Y676908D01*
X545338D01*
X550416D02*
X555495Y671830D01*
X560573Y684526D02*
X563112Y687065D01*
X568191D01*
X570730Y684526D01*
Y681987D01*
X568191Y679447D01*
X565651D01*
X568191D01*
X570730Y676908D01*
Y674369D01*
X568191Y671830D01*
X563112D01*
X560573Y674369D01*
X575808Y684526D02*
X578347Y687065D01*
X583426D01*
X585965Y684526D01*
Y674369D01*
X583426Y671830D01*
X578347D01*
X575808Y674369D01*
Y684526D01*
X487680Y614934D02*
Y630169D01*
X495298D01*
X497837Y627630D01*
Y622551D01*
X495298Y620012D01*
X487680D01*
X492758D02*
X497837Y614934D01*
X513072Y630169D02*
X502915D01*
Y622551D01*
X507993Y625091D01*
X510533D01*
X513072Y622551D01*
Y617473D01*
X510533Y614934D01*
X505454D01*
X502915Y617473D01*
X528307Y614934D02*
X518150D01*
X528307Y625091D01*
Y627630D01*
X525768Y630169D01*
X520689D01*
X518150Y627630D01*
X488696Y608071D02*
Y592836D01*
X496314D01*
X498853Y595375D01*
Y605532D01*
X496314Y608071D01*
X488696D01*
X503931Y592836D02*
Y602993D01*
X509009Y608071D01*
X514088Y602993D01*
Y592836D01*
Y600453D01*
X503931D01*
X529323Y608071D02*
X519166D01*
Y600453D01*
X524244Y602993D01*
X526784D01*
X529323Y600453D01*
Y595375D01*
X526784Y592836D01*
X521705D01*
X519166Y595375D01*
X469897Y605024D02*
X467357Y607563D01*
X462279D01*
X459740Y605024D01*
Y594867D01*
X462279Y592328D01*
X467357D01*
X469897Y594867D01*
X474975Y605024D02*
X477514Y607563D01*
X482593D01*
X485132Y605024D01*
Y602485D01*
X482593Y599945D01*
X480053D01*
X482593D01*
X485132Y597406D01*
Y594867D01*
X482593Y592328D01*
X477514D01*
X474975Y594867D01*
X490210Y605024D02*
X492749Y607563D01*
X497828D01*
X500367Y605024D01*
Y602485D01*
X497828Y599945D01*
X500367Y597406D01*
Y594867D01*
X497828Y592328D01*
X492749D01*
X490210Y594867D01*
Y597406D01*
X492749Y599945D01*
X490210Y602485D01*
Y605024D01*
X492749Y599945D02*
X497828D01*
X493776Y546862D02*
Y562097D01*
X501394D01*
X503933Y559558D01*
Y554479D01*
X501394Y551940D01*
X493776D01*
X498854D02*
X503933Y546862D01*
X519168Y562097D02*
X509011D01*
Y554479D01*
X514089Y557019D01*
X516629D01*
X519168Y554479D01*
Y549401D01*
X516629Y546862D01*
X511550D01*
X509011Y549401D01*
X524246Y559558D02*
X526785Y562097D01*
X531864D01*
X534403Y559558D01*
Y557019D01*
X531864Y554479D01*
X534403Y551940D01*
Y549401D01*
X531864Y546862D01*
X526785D01*
X524246Y549401D01*
Y551940D01*
X526785Y554479D01*
X524246Y557019D01*
Y559558D01*
X526785Y554479D02*
X531864D01*
X653542Y621533D02*
Y606298D01*
X661160D01*
X663699Y608837D01*
Y618994D01*
X661160Y621533D01*
X653542D01*
X668777Y606298D02*
Y616455D01*
X673855Y621533D01*
X678934Y616455D01*
Y606298D01*
Y613915D01*
X668777D01*
X691630Y606298D02*
Y621533D01*
X684012Y613915D01*
X694169D01*
X643636Y645922D02*
Y661157D01*
X651254D01*
X653793Y658618D01*
Y653540D01*
X651254Y651000D01*
X643636D01*
X648714D02*
X653793Y645922D01*
X669028Y661157D02*
X658871D01*
Y653540D01*
X663949Y656079D01*
X666489D01*
X669028Y653540D01*
Y648461D01*
X666489Y645922D01*
X661410D01*
X658871Y648461D01*
X674106Y658618D02*
X676645Y661157D01*
X681724D01*
X684263Y658618D01*
Y656079D01*
X681724Y653540D01*
X679184D01*
X681724D01*
X684263Y651000D01*
Y648461D01*
X681724Y645922D01*
X676645D01*
X674106Y648461D01*
X585216Y671830D02*
Y687065D01*
X592834D01*
X595373Y684526D01*
Y679447D01*
X592834Y676908D01*
X585216D01*
X590294D02*
X595373Y671830D01*
X610608Y687065D02*
X600451D01*
Y679447D01*
X605529Y681987D01*
X608069D01*
X610608Y679447D01*
Y674369D01*
X608069Y671830D01*
X602990D01*
X600451Y674369D01*
X615686Y671830D02*
X620765D01*
X618225D01*
Y687065D01*
X615686Y684526D01*
X617728Y671846D02*
Y687081D01*
X625345D01*
X627885Y684542D01*
Y679464D01*
X625345Y676924D01*
X617728D01*
X622806D02*
X627885Y671846D01*
X643120Y687081D02*
X632963D01*
Y679464D01*
X638041Y682003D01*
X640581D01*
X643120Y679464D01*
Y674385D01*
X640581Y671846D01*
X635502D01*
X632963Y674385D01*
X658355Y687081D02*
X648198D01*
Y679464D01*
X653277Y682003D01*
X655816D01*
X658355Y679464D01*
Y674385D01*
X655816Y671846D01*
X650737D01*
X648198Y674385D01*
X626869Y704084D02*
X624329Y706623D01*
X619251D01*
X616712Y704084D01*
Y693927D01*
X619251Y691388D01*
X624329D01*
X626869Y693927D01*
X639565Y691388D02*
Y706623D01*
X631947Y699006D01*
X642104D01*
X647182Y704084D02*
X649721Y706623D01*
X654800D01*
X657339Y704084D01*
Y693927D01*
X654800Y691388D01*
X649721D01*
X647182Y693927D01*
Y704084D01*
X688594Y597916D02*
Y613151D01*
X696211D01*
X698751Y610612D01*
Y605533D01*
X696211Y602994D01*
X688594D01*
X693672D02*
X698751Y597916D01*
X713986Y613151D02*
X703829D01*
Y605533D01*
X708907Y608073D01*
X711447D01*
X713986Y605533D01*
Y600455D01*
X711447Y597916D01*
X706368D01*
X703829Y600455D01*
X726682Y597916D02*
Y613151D01*
X719064Y605533D01*
X729221D01*
X698751Y629154D02*
X696211Y631693D01*
X691133D01*
X688594Y629154D01*
Y618997D01*
X691133Y616458D01*
X696211D01*
X698751Y618997D01*
X703829Y629154D02*
X706368Y631693D01*
X711447D01*
X713986Y629154D01*
Y626615D01*
X711447Y624076D01*
X708907D01*
X711447D01*
X713986Y621536D01*
Y618997D01*
X711447Y616458D01*
X706368D01*
X703829Y618997D01*
X719064D02*
X721603Y616458D01*
X726682D01*
X729221Y618997D01*
Y629154D01*
X726682Y631693D01*
X721603D01*
X719064Y629154D01*
Y626615D01*
X721603Y624076D01*
X729221D01*
X681733Y569972D02*
X679193Y572511D01*
X674115D01*
X671576Y569972D01*
Y559815D01*
X674115Y557276D01*
X679193D01*
X681733Y559815D01*
X686811Y569972D02*
X689350Y572511D01*
X694429D01*
X696968Y569972D01*
Y567433D01*
X694429Y564893D01*
X691889D01*
X694429D01*
X696968Y562354D01*
Y559815D01*
X694429Y557276D01*
X689350D01*
X686811Y559815D01*
X702046Y572511D02*
X712203D01*
Y569972D01*
X702046Y559815D01*
Y557276D01*
X265173Y865120D02*
X262633Y867659D01*
X257555D01*
X255016Y865120D01*
Y854963D01*
X257555Y852424D01*
X262633D01*
X265173Y854963D01*
X270251Y852424D02*
X275329D01*
X272790D01*
Y867659D01*
X270251Y865120D01*
X282947D02*
X285486Y867659D01*
X290564D01*
X293104Y865120D01*
Y862581D01*
X290564Y860042D01*
X288025D01*
X290564D01*
X293104Y857502D01*
Y854963D01*
X290564Y852424D01*
X285486D01*
X282947Y854963D01*
X718312Y427990D02*
Y443225D01*
X725929D01*
X728469Y440686D01*
Y435607D01*
X725929Y433068D01*
X718312D01*
X723390D02*
X728469Y427990D01*
X733547Y440686D02*
X736086Y443225D01*
X741165D01*
X743704Y440686D01*
Y438147D01*
X741165Y435607D01*
X743704Y433068D01*
Y430529D01*
X741165Y427990D01*
X736086D01*
X733547Y430529D01*
Y433068D01*
X736086Y435607D01*
X733547Y438147D01*
Y440686D01*
X736086Y435607D02*
X741165D01*
X58232Y543814D02*
Y559049D01*
X65850D01*
X68389Y556510D01*
Y551432D01*
X65850Y548892D01*
X58232D01*
X63310D02*
X68389Y543814D01*
X83624D02*
X73467D01*
X83624Y553971D01*
Y556510D01*
X81085Y559049D01*
X76006D01*
X73467Y556510D01*
X88702D02*
X91241Y559049D01*
X96320D01*
X98859Y556510D01*
Y546353D01*
X96320Y543814D01*
X91241D01*
X88702Y546353D01*
Y556510D01*
X76266Y498856D02*
Y514091D01*
X83884D01*
X86423Y511552D01*
Y506474D01*
X83884Y503934D01*
X76266D01*
X81344D02*
X86423Y498856D01*
X91501D02*
X96579D01*
X94040D01*
Y514091D01*
X91501Y511552D01*
X104197Y501395D02*
X106736Y498856D01*
X111814D01*
X114354Y501395D01*
Y511552D01*
X111814Y514091D01*
X106736D01*
X104197Y511552D01*
Y509013D01*
X106736Y506474D01*
X114354D01*
X76266Y520954D02*
Y536189D01*
X83884D01*
X86423Y533650D01*
Y528572D01*
X83884Y526032D01*
X76266D01*
X81344D02*
X86423Y520954D01*
X91501D02*
X96579D01*
X94040D01*
Y536189D01*
X91501Y533650D01*
X104197D02*
X106736Y536189D01*
X111814D01*
X114354Y533650D01*
Y531111D01*
X111814Y528572D01*
X114354Y526032D01*
Y523493D01*
X111814Y520954D01*
X106736D01*
X104197Y523493D01*
Y526032D01*
X106736Y528572D01*
X104197Y531111D01*
Y533650D01*
X106736Y528572D02*
X111814D01*
X95316Y544830D02*
Y560065D01*
X102934D01*
X105473Y557526D01*
Y552448D01*
X102934Y549908D01*
X95316D01*
X100394D02*
X105473Y544830D01*
X110551D02*
X115629D01*
X113090D01*
Y560065D01*
X110551Y557526D01*
X133404Y560065D02*
X123247D01*
Y552448D01*
X128325Y554987D01*
X130864D01*
X133404Y552448D01*
Y547369D01*
X130864Y544830D01*
X125786D01*
X123247Y547369D01*
X262382Y578866D02*
Y594101D01*
X270000D01*
X272539Y591562D01*
Y586483D01*
X270000Y583944D01*
X262382D01*
X267460D02*
X272539Y578866D01*
X287774Y594101D02*
X282695Y591562D01*
X277617Y586483D01*
Y581405D01*
X280156Y578866D01*
X285235D01*
X287774Y581405D01*
Y583944D01*
X285235Y586483D01*
X277617D01*
X322326Y552958D02*
Y568193D01*
X329944D01*
X332483Y565654D01*
Y560575D01*
X329944Y558036D01*
X322326D01*
X327404D02*
X332483Y552958D01*
X347718Y568193D02*
X337561D01*
Y560575D01*
X342639Y563115D01*
X345179D01*
X347718Y560575D01*
Y555497D01*
X345179Y552958D01*
X340100D01*
X337561Y555497D01*
X288290Y485902D02*
Y501137D01*
X295907D01*
X298447Y498598D01*
Y493520D01*
X295907Y490980D01*
X288290D01*
X293368D02*
X298447Y485902D01*
X303525Y498598D02*
X306064Y501137D01*
X311143D01*
X313682Y498598D01*
Y496059D01*
X311143Y493520D01*
X308603D01*
X311143D01*
X313682Y490980D01*
Y488441D01*
X311143Y485902D01*
X306064D01*
X303525Y488441D01*
X309372Y51816D02*
Y67051D01*
X316989D01*
X319529Y64512D01*
Y59433D01*
X316989Y56894D01*
X309372D01*
X314450D02*
X319529Y51816D01*
X334764D02*
X324607D01*
X334764Y61973D01*
Y64512D01*
X332225Y67051D01*
X327146D01*
X324607Y64512D01*
X339090Y871469D02*
Y856234D01*
X349247D01*
X364482Y871469D02*
X354325D01*
Y856234D01*
X364482D01*
X354325Y863851D02*
X359403D01*
X369560Y871469D02*
Y856234D01*
X377178D01*
X379717Y858773D01*
Y868930D01*
X377178Y871469D01*
X369560D01*
X394952Y856234D02*
X384795D01*
X394952Y866391D01*
Y868930D01*
X392413Y871469D01*
X387334D01*
X384795Y868930D01*
X441706Y870453D02*
Y855218D01*
X451863D01*
X467098Y870453D02*
X456941D01*
Y855218D01*
X467098D01*
X456941Y862835D02*
X462019D01*
X472176Y870453D02*
Y855218D01*
X479794D01*
X482333Y857757D01*
Y867914D01*
X479794Y870453D01*
X472176D01*
X487411Y855218D02*
X492490D01*
X489950D01*
Y870453D01*
X487411Y867914D01*
X411734Y872744D02*
Y887979D01*
X419352D01*
X421891Y885440D01*
Y880361D01*
X419352Y877822D01*
X411734D01*
X416812D02*
X421891Y872744D01*
X434587D02*
Y887979D01*
X426969Y880361D01*
X437126D01*
X442204Y875283D02*
X444743Y872744D01*
X449822D01*
X452361Y875283D01*
Y885440D01*
X449822Y887979D01*
X444743D01*
X442204Y885440D01*
Y882901D01*
X444743Y880361D01*
X452361D01*
X386588Y872744D02*
Y887979D01*
X394206D01*
X396745Y885440D01*
Y880361D01*
X394206Y877822D01*
X386588D01*
X391666D02*
X396745Y872744D01*
X411980Y887979D02*
X401823D01*
Y880361D01*
X406901Y882901D01*
X409441D01*
X411980Y880361D01*
Y875283D01*
X409441Y872744D01*
X404362D01*
X401823Y875283D01*
X417058Y885440D02*
X419597Y887979D01*
X424676D01*
X427215Y885440D01*
Y875283D01*
X424676Y872744D01*
X419597D01*
X417058Y875283D01*
Y885440D01*
X686813Y795016D02*
X684274Y797555D01*
X679195D01*
X676656Y795016D01*
Y784859D01*
X679195Y782320D01*
X684274D01*
X686813Y784859D01*
X691891Y795016D02*
X694430Y797555D01*
X699509D01*
X702048Y795016D01*
Y792477D01*
X699509Y789938D01*
X696969D01*
X699509D01*
X702048Y787398D01*
Y784859D01*
X699509Y782320D01*
X694430D01*
X691891Y784859D01*
X714744Y782320D02*
Y797555D01*
X707126Y789938D01*
X717283D01*
X256791Y885186D02*
X254251Y887725D01*
X249173D01*
X246634Y885186D01*
Y875029D01*
X249173Y872490D01*
X254251D01*
X256791Y875029D01*
X261869Y885186D02*
X264408Y887725D01*
X269487D01*
X272026Y885186D01*
Y882647D01*
X269487Y880107D01*
X266947D01*
X269487D01*
X272026Y877568D01*
Y875029D01*
X269487Y872490D01*
X264408D01*
X261869Y875029D01*
X287261Y887725D02*
X277104D01*
Y880107D01*
X282183Y882647D01*
X284722D01*
X287261Y880107D01*
Y875029D01*
X284722Y872490D01*
X279643D01*
X277104Y875029D01*
X145288Y672587D02*
Y662430D01*
X150366Y657352D01*
X155445Y662430D01*
Y672587D01*
X160523D02*
Y657352D01*
X168141D01*
X170680Y659891D01*
Y670048D01*
X168141Y672587D01*
X160523D01*
X175758Y657352D02*
X180837D01*
X178297D01*
Y672587D01*
X175758Y670048D01*
X759460Y648457D02*
Y633222D01*
X767077D01*
X769617Y635761D01*
Y645918D01*
X767077Y648457D01*
X759460D01*
X774695Y633222D02*
Y643379D01*
X779773Y648457D01*
X784852Y643379D01*
Y633222D01*
Y640839D01*
X774695D01*
X789930Y645918D02*
X792469Y648457D01*
X797548D01*
X800087Y645918D01*
Y643379D01*
X797548Y640839D01*
X795008D01*
X797548D01*
X800087Y638300D01*
Y635761D01*
X797548Y633222D01*
X792469D01*
X789930Y635761D01*
X785365Y713990D02*
X782825Y716529D01*
X777747D01*
X775208Y713990D01*
Y703833D01*
X777747Y701294D01*
X782825D01*
X785365Y703833D01*
X790443Y713990D02*
X792982Y716529D01*
X798061D01*
X800600Y713990D01*
Y711451D01*
X798061Y708912D01*
X795521D01*
X798061D01*
X800600Y706372D01*
Y703833D01*
X798061Y701294D01*
X792982D01*
X790443Y703833D01*
X805678Y701294D02*
X810757D01*
X808217D01*
Y716529D01*
X805678Y713990D01*
X894839Y669286D02*
X892299Y671825D01*
X887221D01*
X884682Y669286D01*
Y659129D01*
X887221Y656590D01*
X892299D01*
X894839Y659129D01*
X910074Y656590D02*
X899917D01*
X910074Y666747D01*
Y669286D01*
X907535Y671825D01*
X902456D01*
X899917Y669286D01*
X915152D02*
X917691Y671825D01*
X922770D01*
X925309Y669286D01*
Y666747D01*
X922770Y664208D01*
X925309Y661668D01*
Y659129D01*
X922770Y656590D01*
X917691D01*
X915152Y659129D01*
Y661668D01*
X917691Y664208D01*
X915152Y666747D01*
Y669286D01*
X917691Y664208D02*
X922770D01*
X801875Y713990D02*
X799335Y716529D01*
X794257D01*
X791718Y713990D01*
Y703833D01*
X794257Y701294D01*
X799335D01*
X801875Y703833D01*
X806953Y713990D02*
X809492Y716529D01*
X814571D01*
X817110Y713990D01*
Y711451D01*
X814571Y708912D01*
X812031D01*
X814571D01*
X817110Y706372D01*
Y703833D01*
X814571Y701294D01*
X809492D01*
X806953Y703833D01*
X822188Y713990D02*
X824727Y716529D01*
X829806D01*
X832345Y713990D01*
Y703833D01*
X829806Y701294D01*
X824727D01*
X822188Y703833D01*
Y713990D01*
X875789Y669032D02*
X873250Y671571D01*
X868171D01*
X865632Y669032D01*
Y658875D01*
X868171Y656336D01*
X873250D01*
X875789Y658875D01*
X891024Y656336D02*
X880867D01*
X891024Y666493D01*
Y669032D01*
X888485Y671571D01*
X883406D01*
X880867Y669032D01*
X906259Y656336D02*
X896102D01*
X906259Y666493D01*
Y669032D01*
X903720Y671571D01*
X898641D01*
X896102Y669032D01*
X720341Y584958D02*
X717802Y587497D01*
X712723D01*
X710184Y584958D01*
Y574801D01*
X712723Y572262D01*
X717802D01*
X720341Y574801D01*
X735576Y572262D02*
X725419D01*
X735576Y582419D01*
Y584958D01*
X733037Y587497D01*
X727958D01*
X725419Y584958D01*
X740654Y572262D02*
X745732D01*
X743193D01*
Y587497D01*
X740654Y584958D01*
X73149Y704084D02*
X70609Y706623D01*
X65531D01*
X62992Y704084D01*
Y693927D01*
X65531Y691388D01*
X70609D01*
X73149Y693927D01*
X78227Y691388D02*
X83305D01*
X80766D01*
Y706623D01*
X78227Y704084D01*
X98540Y691388D02*
Y706623D01*
X90923Y699006D01*
X101080D01*
X813308Y519679D02*
Y504444D01*
X820926D01*
X823465Y506983D01*
Y517140D01*
X820926Y519679D01*
X813308D01*
X828543Y517140D02*
X831082Y519679D01*
X836161D01*
X838700Y517140D01*
Y514601D01*
X836161Y512062D01*
X838700Y509522D01*
Y506983D01*
X836161Y504444D01*
X831082D01*
X828543Y506983D01*
Y509522D01*
X831082Y512062D01*
X828543Y514601D01*
Y517140D01*
X831082Y512062D02*
X836161D01*
X33594Y365760D02*
Y380995D01*
X41212D01*
X43751Y378456D01*
Y373377D01*
X41212Y370838D01*
X33594D01*
X38672D02*
X43751Y365760D01*
X58986D02*
X48829D01*
X58986Y375917D01*
Y378456D01*
X56447Y380995D01*
X51368D01*
X48829Y378456D01*
X71682Y365760D02*
Y380995D01*
X64064Y373377D01*
X74221D01*
X132908Y536448D02*
Y551683D01*
X140526D01*
X143065Y549144D01*
Y544066D01*
X140526Y541526D01*
X132908D01*
X137986D02*
X143065Y536448D01*
X158300D02*
X148143D01*
X158300Y546605D01*
Y549144D01*
X155761Y551683D01*
X150682D01*
X148143Y549144D01*
X163378D02*
X165917Y551683D01*
X170996D01*
X173535Y549144D01*
Y546605D01*
X170996Y544066D01*
X168456D01*
X170996D01*
X173535Y541526D01*
Y538987D01*
X170996Y536448D01*
X165917D01*
X163378Y538987D01*
X59690Y365760D02*
Y380995D01*
X67308D01*
X69847Y378456D01*
Y373377D01*
X67308Y370838D01*
X59690D01*
X64768D02*
X69847Y365760D01*
X85082D02*
X74925D01*
X85082Y375917D01*
Y378456D01*
X82543Y380995D01*
X77464D01*
X74925Y378456D01*
X100317Y365760D02*
X90160D01*
X100317Y375917D01*
Y378456D01*
X97778Y380995D01*
X92699D01*
X90160Y378456D01*
X174056Y509524D02*
Y524759D01*
X181674D01*
X184213Y522220D01*
Y517141D01*
X181674Y514602D01*
X174056D01*
X179134D02*
X184213Y509524D01*
X199448D02*
X189291D01*
X199448Y519681D01*
Y522220D01*
X196909Y524759D01*
X191830D01*
X189291Y522220D01*
X204526Y509524D02*
X209604D01*
X207065D01*
Y524759D01*
X204526Y522220D01*
X110998Y364744D02*
Y379979D01*
X118616D01*
X121155Y377440D01*
Y372361D01*
X118616Y369822D01*
X110998D01*
X116076D02*
X121155Y364744D01*
X126233D02*
X131311D01*
X128772D01*
Y379979D01*
X126233Y377440D01*
X138929Y379979D02*
X149086D01*
Y377440D01*
X138929Y367283D01*
Y364744D01*
X101158Y510286D02*
Y525521D01*
X108776D01*
X111315Y522982D01*
Y517904D01*
X108776Y515364D01*
X101158D01*
X106236D02*
X111315Y510286D01*
X116393D02*
X121471D01*
X118932D01*
Y525521D01*
X116393Y522982D01*
X139246Y525521D02*
X134167Y522982D01*
X129089Y517904D01*
Y512825D01*
X131628Y510286D01*
X136706D01*
X139246Y512825D01*
Y515364D01*
X136706Y517904D01*
X129089D01*
X55880Y154940D02*
Y170175D01*
X63498D01*
X66037Y167636D01*
Y162558D01*
X63498Y160018D01*
X55880D01*
X60958D02*
X66037Y154940D01*
X71115D02*
X76193D01*
X73654D01*
Y170175D01*
X71115Y167636D01*
X91428Y154940D02*
Y170175D01*
X83811Y162558D01*
X93968D01*
X25908Y154940D02*
Y170175D01*
X33526D01*
X36065Y167636D01*
Y162558D01*
X33526Y160018D01*
X25908D01*
X30986D02*
X36065Y154940D01*
X41143D02*
X46221D01*
X43682D01*
Y170175D01*
X41143Y167636D01*
X53839D02*
X56378Y170175D01*
X61456D01*
X63996Y167636D01*
Y165097D01*
X61456Y162558D01*
X58917D01*
X61456D01*
X63996Y160018D01*
Y157479D01*
X61456Y154940D01*
X56378D01*
X53839Y157479D01*
X173990Y260604D02*
Y275839D01*
X181607D01*
X184147Y273300D01*
Y268221D01*
X181607Y265682D01*
X173990D01*
X179068D02*
X184147Y260604D01*
X189225D02*
X194303D01*
X191764D01*
Y275839D01*
X189225Y273300D01*
X201921Y260604D02*
X206999D01*
X204460D01*
Y275839D01*
X201921Y273300D01*
X171450Y231394D02*
Y246629D01*
X179067D01*
X181607Y244090D01*
Y239011D01*
X179067Y236472D01*
X171450D01*
X176528D02*
X181607Y231394D01*
X186685D02*
X191763D01*
X189224D01*
Y246629D01*
X186685Y244090D01*
X199381D02*
X201920Y246629D01*
X206999D01*
X209538Y244090D01*
Y233933D01*
X206999Y231394D01*
X201920D01*
X199381Y233933D01*
Y244090D01*
X177800Y202184D02*
Y217419D01*
X185417D01*
X187957Y214880D01*
Y209802D01*
X185417Y207262D01*
X177800D01*
X182878D02*
X187957Y202184D01*
X193035Y204723D02*
X195574Y202184D01*
X200653D01*
X203192Y204723D01*
Y214880D01*
X200653Y217419D01*
X195574D01*
X193035Y214880D01*
Y212341D01*
X195574Y209802D01*
X203192D01*
X177800Y172974D02*
Y188209D01*
X185417D01*
X187957Y185670D01*
Y180592D01*
X185417Y178052D01*
X177800D01*
X182878D02*
X187957Y172974D01*
X193035Y188209D02*
X203192D01*
Y185670D01*
X193035Y175513D01*
Y172974D01*
X171450Y341879D02*
X176528D01*
X173989D01*
Y326644D01*
X171450D01*
X176528D01*
X194303Y339340D02*
X191763Y341879D01*
X186685D01*
X184146Y339340D01*
Y329183D01*
X186685Y326644D01*
X191763D01*
X194303Y329183D01*
X209538Y326644D02*
X199381D01*
X209538Y336801D01*
Y339340D01*
X206999Y341879D01*
X201920D01*
X199381Y339340D01*
X142240Y603245D02*
Y588010D01*
X149858D01*
X152397Y590549D01*
Y600706D01*
X149858Y603245D01*
X142240D01*
X157475D02*
X167632D01*
Y600706D01*
X157475Y590549D01*
Y588010D01*
X187449Y369058D02*
X184909Y371597D01*
X179831D01*
X177292Y369058D01*
Y358901D01*
X179831Y356362D01*
X184909D01*
X187449Y358901D01*
X192527Y369058D02*
X195066Y371597D01*
X200145D01*
X202684Y369058D01*
Y366519D01*
X200145Y363979D01*
X202684Y361440D01*
Y358901D01*
X200145Y356362D01*
X195066D01*
X192527Y358901D01*
Y361440D01*
X195066Y363979D01*
X192527Y366519D01*
Y369058D01*
X195066Y363979D02*
X200145D01*
X163385Y520442D02*
X160846Y522981D01*
X155767D01*
X153228Y520442D01*
Y510285D01*
X155767Y507746D01*
X160846D01*
X163385Y510285D01*
X168463Y522981D02*
X178620D01*
Y520442D01*
X168463Y510285D01*
Y507746D01*
X219773Y528824D02*
X217234Y531363D01*
X212155D01*
X209616Y528824D01*
Y518667D01*
X212155Y516128D01*
X217234D01*
X219773Y518667D01*
X235008Y531363D02*
X229929Y528824D01*
X224851Y523745D01*
Y518667D01*
X227390Y516128D01*
X232469D01*
X235008Y518667D01*
Y521206D01*
X232469Y523745D01*
X224851D01*
X219773Y509774D02*
X217234Y512313D01*
X212155D01*
X209616Y509774D01*
Y499617D01*
X212155Y497078D01*
X217234D01*
X219773Y499617D01*
X235008Y512313D02*
X224851D01*
Y504696D01*
X229929Y507235D01*
X232469D01*
X235008Y504696D01*
Y499617D01*
X232469Y497078D01*
X227390D01*
X224851Y499617D01*
X140525Y520950D02*
X137986Y523489D01*
X132907D01*
X130368Y520950D01*
Y510793D01*
X132907Y508254D01*
X137986D01*
X140525Y510793D01*
X153221Y508254D02*
Y523489D01*
X145603Y515872D01*
X155760D01*
X290322Y618490D02*
Y633725D01*
X297939D01*
X300479Y631186D01*
Y626107D01*
X297939Y623568D01*
X290322D01*
X295400D02*
X300479Y618490D01*
X313175D02*
Y633725D01*
X305557Y626107D01*
X315714D01*
X317754Y119126D02*
Y134361D01*
X325372D01*
X327911Y131822D01*
Y126743D01*
X325372Y124204D01*
X317754D01*
X322832D02*
X327911Y119126D01*
X332989D02*
X338067D01*
X335528D01*
Y134361D01*
X332989Y131822D01*
X817372Y457957D02*
Y442722D01*
X824989D01*
X827529Y445261D01*
Y455418D01*
X824989Y457957D01*
X817372D01*
X842764D02*
X837685Y455418D01*
X832607Y450340D01*
Y445261D01*
X835146Y442722D01*
X840225D01*
X842764Y445261D01*
Y447800D01*
X840225Y450340D01*
X832607D01*
X292354Y606801D02*
Y591566D01*
X299972D01*
X302511Y594105D01*
Y604262D01*
X299972Y606801D01*
X292354D01*
X317746D02*
X307589D01*
Y599184D01*
X312667Y601723D01*
X315207D01*
X317746Y599184D01*
Y594105D01*
X315207Y591566D01*
X310128D01*
X307589Y594105D01*
X817372Y382773D02*
Y367538D01*
X824989D01*
X827529Y370077D01*
Y380234D01*
X824989Y382773D01*
X817372D01*
X840225Y367538D02*
Y382773D01*
X832607Y375155D01*
X842764D01*
X817372Y163825D02*
Y148590D01*
X824989D01*
X827529Y151129D01*
Y161286D01*
X824989Y163825D01*
X817372D01*
X832607Y161286D02*
X835146Y163825D01*
X840225D01*
X842764Y161286D01*
Y158747D01*
X840225Y156208D01*
X837685D01*
X840225D01*
X842764Y153668D01*
Y151129D01*
X840225Y148590D01*
X835146D01*
X832607Y151129D01*
X817372Y241803D02*
Y226568D01*
X824989D01*
X827529Y229107D01*
Y239264D01*
X824989Y241803D01*
X817372D01*
X842764Y226568D02*
X832607D01*
X842764Y236725D01*
Y239264D01*
X840225Y241803D01*
X835146D01*
X832607Y239264D01*
X346964Y135377D02*
Y120142D01*
X354581D01*
X357121Y122681D01*
Y132838D01*
X354581Y135377D01*
X346964D01*
X362199Y120142D02*
X367277D01*
X364738D01*
Y135377D01*
X362199Y132838D01*
X230375Y180082D02*
X227836Y182621D01*
X222757D01*
X220218Y180082D01*
Y169925D01*
X222757Y167386D01*
X227836D01*
X230375Y169925D01*
X235453Y180082D02*
X237992Y182621D01*
X243071D01*
X245610Y180082D01*
Y177543D01*
X243071Y175004D01*
X240531D01*
X243071D01*
X245610Y172464D01*
Y169925D01*
X243071Y167386D01*
X237992D01*
X235453Y169925D01*
D11*
X149000Y646250D02*
G03*
X149000Y646250I-500J0D01*
G01*
X133754Y757500D02*
X198754D01*
X136254Y755000D02*
X196254D01*
X133754Y722500D02*
X198754D01*
X136254Y725000D02*
X196254D01*
X198754Y722500D02*
Y757500D01*
X196254Y755000D02*
X198754Y757500D01*
X196254Y725000D02*
X198754Y722500D01*
X196254Y725000D02*
Y755000D01*
X133754Y722500D02*
Y757500D01*
X136254Y725000D02*
Y755000D01*
X133754Y757500D02*
X136254Y755000D01*
X133754Y722500D02*
X136254Y725000D01*
X33754Y756500D02*
X98754D01*
X36254Y754000D02*
X96254D01*
X33754Y721500D02*
X98754D01*
X36254Y724000D02*
X96254D01*
X98754Y721500D02*
Y756500D01*
X96254Y754000D02*
X98754Y756500D01*
X96254Y724000D02*
X98754Y721500D01*
X96254Y724000D02*
Y754000D01*
X33754Y721500D02*
Y756500D01*
X36254Y724000D02*
Y754000D01*
X33754Y756500D02*
X36254Y754000D01*
X33754Y721500D02*
X36254Y724000D01*
X747246Y561500D02*
X812246D01*
X749746Y564000D02*
X809746D01*
X747246Y596500D02*
X812246D01*
X749746Y594000D02*
X809746D01*
X747246Y561500D02*
Y596500D01*
Y561500D02*
X749746Y564000D01*
X747246Y596500D02*
X749746Y594000D01*
Y564000D02*
Y594000D01*
X812246Y561500D02*
Y596500D01*
X809746Y564000D02*
Y594000D01*
Y564000D02*
X812246Y561500D01*
X809746Y594000D02*
X812246Y596500D01*
D12*
X1243511Y504631D02*
Y515391D01*
X1590000Y25300D02*
Y48700D01*
X1266850Y60900D02*
X1319150D01*
X1263500Y87100D02*
X1319150D01*
X1290000Y99620D02*
Y110380D01*
X1210500Y237100D02*
X1266150D01*
X1213850Y210900D02*
X1266150D01*
X1226000Y80000D02*
X1240000D01*
X1197250Y129750D02*
X1233500D01*
X1206500Y114250D02*
X1233500D01*
X1314100Y181850D02*
Y234150D01*
X1287900Y178500D02*
Y234150D01*
X1269850Y121900D02*
X1322150D01*
X1266500Y148100D02*
X1322150D01*
X1285000Y531000D02*
X1299000D01*
X1309000D02*
X1323000D01*
X1297900Y357850D02*
Y410150D01*
X1324100Y357850D02*
Y413500D01*
X1285500Y482250D02*
X1312500D01*
X1276250Y497750D02*
X1312500D01*
X1215500Y374000D02*
Y406000D01*
X1264500D01*
Y374000D02*
Y406000D01*
X1215500Y374000D02*
X1264500D01*
X1214200Y355250D02*
Y370500D01*
X1204850Y551100D02*
X1257150D01*
X1204850Y524900D02*
X1260500D01*
X1189500Y174000D02*
Y206000D01*
X1140500Y174000D02*
X1189500D01*
X1140500D02*
Y206000D01*
X1189500D01*
X1190800Y209500D02*
Y224750D01*
X1101000Y79000D02*
X1115000D01*
X1074000Y80000D02*
X1088000D01*
X1080500Y114250D02*
X1107500D01*
X1071250Y129750D02*
X1107500D01*
X1139000Y60620D02*
Y71380D01*
X1201750Y79500D02*
X1215750D01*
X1158500Y460750D02*
X1185500D01*
X1158500Y445250D02*
X1194750D01*
X1177000Y495000D02*
X1191000D01*
X1147000Y494000D02*
X1161000D01*
X1162000Y335250D02*
X1194000D01*
Y248750D02*
Y335250D01*
X1162000Y248750D02*
X1194000D01*
X1162000D02*
Y335250D01*
X1143000Y337100D02*
X1158500D01*
X1173620Y578000D02*
X1184380D01*
X1141100Y371850D02*
Y424150D01*
X1114900Y368500D02*
Y424150D01*
X1105100Y372850D02*
Y425150D01*
X1078900Y369500D02*
Y425150D01*
X720620Y438500D02*
X731380D01*
X1061500Y818000D02*
X1124500D01*
Y772000D02*
Y818000D01*
X1061500Y772000D02*
X1124500D01*
X1061500D02*
Y818000D01*
X1037000Y818450D02*
X1058000D01*
X1011000Y803620D02*
Y814380D01*
X1012000Y717620D02*
Y728380D01*
X1061500Y733000D02*
X1124500D01*
Y687000D02*
Y733000D01*
X1061500Y687000D02*
X1124500D01*
X1061500D02*
Y733000D01*
X1037000Y733450D02*
X1058000D01*
X1160620Y783000D02*
X1171380D01*
X1161620Y733000D02*
X1172380D01*
X565532Y648620D02*
Y659380D01*
X508000Y591620D02*
Y602380D01*
X514000Y523620D02*
Y534380D01*
X664000Y622620D02*
Y633380D01*
X603000Y648620D02*
Y659380D01*
X638000Y648620D02*
Y659380D01*
X709000Y574620D02*
Y585380D01*
X172000Y315990D02*
X184000D01*
X187500Y286490D02*
Y315490D01*
Y286490D02*
X193500D01*
Y315490D01*
X187500D02*
X193500D01*
X154000Y648000D02*
X172000D01*
X154000Y634000D02*
X172000D01*
X154000Y646250D02*
Y648000D01*
X172000Y646250D02*
Y648000D01*
X154000Y634000D02*
Y635750D01*
X172000Y634000D02*
Y635750D01*
X357000Y845250D02*
X377000D01*
X357000Y832750D02*
X382000D01*
X720620Y403000D02*
X731380D01*
X303000Y462620D02*
Y473380D01*
X282250Y574750D02*
X318500D01*
X291500Y559250D02*
X318500D01*
X337000Y529620D02*
Y540380D01*
X303000Y592000D02*
Y606000D01*
X124620Y340000D02*
X135380D01*
X147250Y532250D02*
Y568500D01*
X162750Y541500D02*
Y568500D01*
X74620Y341000D02*
X85380D01*
X48620D02*
X59380D01*
X91000Y497620D02*
Y508380D01*
X153340Y513180D02*
Y523940D01*
X114940Y485540D02*
X125700D01*
X91000Y475620D02*
Y486380D01*
X110000Y521620D02*
Y532380D01*
X73000Y520620D02*
Y531380D01*
X186520Y484540D02*
X197280D01*
X311620Y27000D02*
X322380D01*
X264620Y554000D02*
X275380D01*
X401620Y848000D02*
X412380D01*
X426620D02*
X437380D01*
X39620Y130000D02*
X50380D01*
X69620D02*
X80380D01*
X349250Y73500D02*
Y100500D01*
X364750Y73500D02*
Y109750D01*
X843100Y156850D02*
Y209150D01*
X816900Y153500D02*
Y209150D01*
X843100Y78850D02*
Y131150D01*
X816900Y75500D02*
Y131150D01*
X843100Y297850D02*
Y350150D01*
X816900Y294500D02*
Y350150D01*
X843100Y372850D02*
Y425150D01*
X816900Y369500D02*
Y425150D01*
X321000Y89000D02*
X335000D01*
X190500Y146670D02*
Y160670D01*
Y175880D02*
Y189880D01*
Y205090D02*
Y219090D01*
Y234300D02*
Y248300D01*
X799850Y493100D02*
X852150D01*
X799850Y466900D02*
X855500D01*
X452000Y844250D02*
X477000D01*
X457000Y831750D02*
X477000D01*
D13*
X493100Y555200D02*
Y572300D01*
X524900Y555450D02*
Y572550D01*
X658000Y568851D02*
Y585951D01*
X689801Y569101D02*
Y586201D01*
M02*
