M48
;Layer_Color=9474304
;FILE_FORMAT=4:4
METRIC
;TYPE=PLATED
T1F00S00C0.6060
T2F00S00C0.7000
T3F00S00C0.7300
T4F00S00C0.7330
T5F00S00C0.8000
T7F00S00C1.0000
T8F00S00C1.0500
T9F00S00C1.1000
T10F00S00C1.2000
T11F00S00C1.2800
T12F00S00C1.3000
T13F00S00C1.3200
T14F00S00C1.3500
T15F00S00C1.3800
T16F00S00C1.9300
T17F00S00C2.0000
%
T01
X01362000Y00482000
X01438200
T02
X01236000Y00161000
Y00181000
X01183000Y00388000
Y00408000
T03
X00155880Y00375990
X00181280
X00206680
X00232080
Y00455390
X00206680
X00181280
X00155880
X00130480
X00105080
X00079680
X00054280
Y00375990
X00079680
X00105080
X00130480
T04
X00554900Y00551900
Y00577300
Y00602700
Y00628100
X00631100
Y00602700
Y00577300
Y00551900
T05
X00291000Y00019000
X01319000Y00108000
X01335000Y00298000
X01378000Y00320000
X01422000Y00430000
X01283000Y00367000
X01280000Y00328000
X01282000Y00298000
X01255000Y00311000
X01329000Y00255000
X01146000Y00237000
X01121000Y00325000
X01127000Y00447000
X00314000Y00493000
X00340000Y00355000
X00342000Y00243000
X00238000Y00323000
X00159000Y00335000
X00117000Y00288000
X00054000Y00480500
X00043000Y00683000
X00017000Y00755000
X00122000Y00797000
X00110000Y00643000
X00143000Y00684000
X00204000Y00766000
X00228000Y00788000
X00292000Y00837000
X00500000Y00629000
X00459000Y00561000
X00652000Y00551000
X00705000Y00561000
X00717000Y00619000
X00669000Y00652000
X00798000Y00642000
X00874000Y00681000
X00901000Y00679000
X00902000Y00575000
X00801000Y00908000
X00558000Y00760000
X00951000Y00679000
X01024000Y00697000
X01022000Y00784000
X01138000Y00761000
Y00674000
X00952000Y00575000
T07
X00929000Y00098000
X01004000
Y00266000
Y00436000
X00929000
Y00266000
T08
X01555000Y00293000
Y00568000
T09
X01595000Y00127200
Y00178000
X00533100Y00736948
X00507700
X00482300
X00456900
X00431500
X00406100
X00380700
X00355300
X00329900
X00304500
X00279100
X00253700
X00253700Y00889000
X00279100
X00304500
X00329900
X00355300
X00380700
X00406100
X00431500
X00456900
X00482300
X00507700
X00533100
X00558500
X00583900
X00609300
X00634700
X00660100
X00685500
X00710900
X00736300
X00801000Y00882800
Y00857400
Y00832000
X00736300Y00736948
X00710900
X00685500
X00660100
X00634700
X00609300
X00583900
X00558500
T10
X01389000Y00063000
X01489000
Y00193000
X01389000
T11
X00289000Y00382000
X00314400
X00339800
X00205000Y00540000
Y00565400
Y00590800
T12
X00291200Y00435000
X00314100
X00337000
X00245085Y00542500
Y00565400
Y00588300
T13
X00837960Y00634900
Y00661900
Y00688900
T14
X00468000Y00125000
X00772800
Y00175800
Y00226600
Y00277400
Y00328200
Y00379000
Y00429800
Y00480600
X00468000
Y00429800
Y00379000
Y00328200
Y00277400
Y00226600
Y00175800
T15
X00176000Y00037000
Y00062400
Y00087800
X00360000Y00035000
X00385400
X00410800
X01083600Y00040460
X01109000Y00038230
X01134400
X01242000Y00039000
X01267400
X01292800
X00410000Y00575000
X00384600
X00359200
X01083600
X01109000
X01134400
X01242000
X01267400
X01292800
T16
X00115000Y00100000
Y00182600
T17
X00468000Y00150400
Y00302800
X00466937Y00456465
M30
