G04*
G04 #@! TF.GenerationSoftware,Altium Limited,Altium Designer,22.11.1 (43)*
G04*
G04 Layer_Physical_Order=2*
G04 Layer_Color=16711680*
%FSLAX44Y44*%
%MOMM*%
G71*
G04*
G04 #@! TF.SameCoordinates,BEA400A9-7B0A-4234-B2B5-4D1F4660E836*
G04*
G04*
G04 #@! TF.FilePolarity,Positive*
G04*
G01*
G75*
%ADD87C,2.0000*%
%ADD88C,1.8000*%
%ADD90C,0.8000*%
%ADD91R,2.0000X2.0000*%
%ADD92C,2.0000*%
%ADD93R,2.1000X2.8000*%
%ADD94O,2.1000X2.8000*%
%ADD95R,1.1000X1.1000*%
%ADD96R,1.5000X1.5000*%
%ADD97C,1.5000*%
%ADD98O,2.8000X2.1000*%
%ADD99R,2.8000X2.1000*%
%ADD100R,3.0000X1.4000*%
%ADD101O,3.0000X1.4000*%
%ADD102C,1.1330*%
%ADD103C,4.0000*%
%ADD104C,1.8000*%
%ADD105C,2.2000*%
%ADD106R,2.2000X2.2000*%
%ADD107R,1.8000X1.8000*%
%ADD108C,2.0250*%
%ADD109R,4.0000X4.0000*%
%ADD110R,3.0000X3.0000*%
%ADD111C,3.0000*%
%ADD112C,2.8950*%
%ADD113C,1.9800*%
%ADD114R,1.9800X1.9800*%
%ADD115R,2.0000X2.0000*%
%ADD116R,2.2000X2.2000*%
G36*
X831000Y786000D02*
X753000Y708000D01*
X599000D01*
X567000Y676000D01*
Y589787D01*
X565730Y589031D01*
X562900Y589403D01*
X546900D01*
X543767Y588991D01*
X540848Y587782D01*
X538341Y585858D01*
X536418Y583352D01*
X535209Y580433D01*
X534796Y577300D01*
X535209Y574167D01*
X536418Y571248D01*
X538341Y568741D01*
X540848Y566818D01*
X543767Y565609D01*
X546900Y565196D01*
X562900D01*
X565730Y565569D01*
X567000Y564813D01*
Y561086D01*
X565944Y560381D01*
X565249Y560668D01*
X562900Y560978D01*
X546900D01*
X544551Y560668D01*
X542361Y559761D01*
X540481Y558319D01*
X539039Y556439D01*
X538132Y554249D01*
X537822Y551900D01*
X538132Y549551D01*
X539039Y547361D01*
X540481Y545481D01*
X542361Y544039D01*
X544551Y543132D01*
X546900Y542822D01*
X562900D01*
X565249Y543132D01*
X565944Y543419D01*
X567000Y542714D01*
Y522000D01*
X532000Y487000D01*
Y3059D01*
X5059D01*
Y402291D01*
X6254Y402719D01*
X6342Y402612D01*
X43622Y365332D01*
X44194Y364862D01*
X44718Y364339D01*
X45334Y363927D01*
X45906Y363458D01*
X46559Y363109D01*
X47175Y362697D01*
X47859Y362414D01*
X48512Y362065D01*
X49221Y361850D01*
X49905Y361567D01*
X50631Y361422D01*
X51340Y361207D01*
X52076Y361134D01*
X52803Y360990D01*
X53543D01*
X54280Y360917D01*
X55017Y360990D01*
X55757D01*
X56484Y361134D01*
X57221Y361207D01*
X57929Y361422D01*
X58655Y361567D01*
X59339Y361850D01*
X60048Y362065D01*
X60701Y362414D01*
X61385Y362697D01*
X62001Y363109D01*
X62654Y363458D01*
X63226Y363927D01*
X63842Y364339D01*
X64366Y364862D01*
X64938Y365332D01*
X65408Y365905D01*
X65931Y366428D01*
X66216Y366855D01*
X66771Y366970D01*
X67783Y366796D01*
X68029Y366428D01*
X70118Y364339D01*
X72575Y362697D01*
X75305Y361567D01*
X78203Y360990D01*
X81157D01*
X84055Y361567D01*
X86785Y362697D01*
X89242Y364339D01*
X91331Y366428D01*
X91745Y367047D01*
X93015D01*
X93429Y366428D01*
X95518Y364339D01*
X97975Y362697D01*
X100705Y361567D01*
X103603Y360990D01*
X106557D01*
X109455Y361567D01*
X112185Y362697D01*
X114642Y364339D01*
X116731Y366428D01*
X117145Y367047D01*
X118415D01*
X118829Y366428D01*
X120918Y364339D01*
X123375Y362697D01*
X126105Y361567D01*
X129003Y360990D01*
X131957D01*
X134855Y361567D01*
X137585Y362697D01*
X140042Y364339D01*
X142131Y366428D01*
X142545Y367047D01*
X143815D01*
X144229Y366428D01*
X146318Y364339D01*
X148775Y362697D01*
X151505Y361567D01*
X154403Y360990D01*
X157357D01*
X160255Y361567D01*
X162985Y362697D01*
X165442Y364339D01*
X167531Y366428D01*
X167945Y367047D01*
X169215D01*
X169629Y366428D01*
X171718Y364339D01*
X174175Y362697D01*
X176905Y361567D01*
X179803Y360990D01*
X182757D01*
X185655Y361567D01*
X188385Y362697D01*
X190842Y364339D01*
X192931Y366428D01*
X193345Y367047D01*
X194615D01*
X195029Y366428D01*
X197118Y364339D01*
X199575Y362697D01*
X202305Y361567D01*
X205203Y360990D01*
X208157D01*
X211055Y361567D01*
X213785Y362697D01*
X216242Y364339D01*
X218331Y366428D01*
X218745Y367047D01*
X220015D01*
X220429Y366428D01*
X222518Y364339D01*
X224975Y362697D01*
X227705Y361567D01*
X230603Y360990D01*
X233557D01*
X236455Y361567D01*
X239185Y362697D01*
X241642Y364339D01*
X243731Y366428D01*
X245373Y368885D01*
X246504Y371615D01*
X247080Y374513D01*
Y377467D01*
X246504Y380365D01*
X245373Y383095D01*
X243731Y385552D01*
X241642Y387641D01*
X239185Y389283D01*
X236455Y390414D01*
X233557Y390990D01*
X230603D01*
X227705Y390414D01*
X224975Y389283D01*
X222518Y387641D01*
X220429Y385552D01*
X220015Y384933D01*
X218745D01*
X218331Y385552D01*
X216242Y387641D01*
X213785Y389283D01*
X211055Y390414D01*
X208157Y390990D01*
X205203D01*
X202305Y390414D01*
X199575Y389283D01*
X197118Y387641D01*
X195029Y385552D01*
X194615Y384933D01*
X193345D01*
X192931Y385552D01*
X190842Y387641D01*
X188385Y389283D01*
X185655Y390414D01*
X182757Y390990D01*
X179803D01*
X176905Y390414D01*
X174175Y389283D01*
X171718Y387641D01*
X169629Y385552D01*
X169215Y384933D01*
X167945D01*
X167531Y385552D01*
X165442Y387641D01*
X162985Y389283D01*
X160255Y390414D01*
X157357Y390990D01*
X154403D01*
X151505Y390414D01*
X148775Y389283D01*
X146318Y387641D01*
X144229Y385552D01*
X143815Y384933D01*
X142545D01*
X142131Y385552D01*
X140042Y387641D01*
X137585Y389283D01*
X134855Y390414D01*
X131957Y390990D01*
X129003D01*
X126105Y390414D01*
X123375Y389283D01*
X120918Y387641D01*
X118829Y385552D01*
X118415Y384933D01*
X117145D01*
X116731Y385552D01*
X114642Y387641D01*
X112185Y389283D01*
X109455Y390414D01*
X106557Y390990D01*
X103603D01*
X100705Y390414D01*
X97975Y389283D01*
X95518Y387641D01*
X93429Y385552D01*
X93015Y384933D01*
X91745D01*
X91331Y385552D01*
X89242Y387641D01*
X86785Y389283D01*
X84055Y390414D01*
X81157Y390990D01*
X78203D01*
X75305Y390414D01*
X72575Y389283D01*
X70118Y387641D01*
X68029Y385552D01*
X67783Y385184D01*
X66771Y385010D01*
X66216Y385125D01*
X65931Y385552D01*
X65408Y386076D01*
X64938Y386648D01*
X32073Y419513D01*
Y674397D01*
X33343Y674923D01*
X35300Y672965D01*
X38160Y671315D01*
X41349Y670460D01*
X41730D01*
Y683000D01*
Y695540D01*
X41349D01*
X38160Y694685D01*
X35300Y693035D01*
X33343Y691077D01*
X32073Y691603D01*
Y696757D01*
X61243Y725927D01*
X214355D01*
X217296Y726217D01*
X220123Y727075D01*
X222729Y728468D01*
X225013Y730342D01*
X238430Y743759D01*
X239700Y743233D01*
Y722948D01*
X267700D01*
Y726753D01*
X268970Y727279D01*
X270504Y725745D01*
X273696Y723902D01*
X277257Y722948D01*
X280943D01*
X284504Y723902D01*
X287696Y725745D01*
X290303Y728352D01*
X291165Y729845D01*
X292435D01*
X293297Y728352D01*
X295904Y725745D01*
X299096Y723902D01*
X302657Y722948D01*
X306343D01*
X309904Y723902D01*
X313096Y725745D01*
X315703Y728352D01*
X316565Y729845D01*
X317835D01*
X318697Y728352D01*
X321304Y725745D01*
X324496Y723902D01*
X328057Y722948D01*
X331743D01*
X335304Y723902D01*
X338496Y725745D01*
X340606Y727855D01*
X342154Y727823D01*
X342872Y726749D01*
X345101Y724520D01*
X347721Y722769D01*
X350633Y721563D01*
X353724Y720948D01*
X356876D01*
X359967Y721563D01*
X362879Y722769D01*
X365499Y724520D01*
X367728Y726749D01*
X368446Y727823D01*
X369995Y727855D01*
X372104Y725745D01*
X375296Y723902D01*
X378857Y722948D01*
X382543D01*
X386104Y723902D01*
X389296Y725745D01*
X391406Y727855D01*
X392954Y727823D01*
X393672Y726749D01*
X395901Y724520D01*
X398521Y722769D01*
X401433Y721563D01*
X404524Y720948D01*
X407676D01*
X410767Y721563D01*
X413679Y722769D01*
X416300Y724520D01*
X417939Y726159D01*
X418800Y726607D01*
X419662Y726159D01*
X421301Y724520D01*
X423921Y722769D01*
X426833Y721563D01*
X429924Y720948D01*
X433076D01*
X436167Y721563D01*
X439079Y722769D01*
X441699Y724520D01*
X443928Y726749D01*
X444646Y727823D01*
X446195Y727855D01*
X448304Y725745D01*
X451496Y723902D01*
X455057Y722948D01*
X458743D01*
X462304Y723902D01*
X465496Y725745D01*
X468103Y728352D01*
X468965Y729845D01*
X470235D01*
X471097Y728352D01*
X473704Y725745D01*
X476896Y723902D01*
X480457Y722948D01*
X484143D01*
X487704Y723902D01*
X490896Y725745D01*
X493006Y727855D01*
X494554Y727823D01*
X495272Y726749D01*
X497501Y724520D01*
X500121Y722769D01*
X503033Y721563D01*
X506124Y720948D01*
X509276D01*
X512367Y721563D01*
X515279Y722769D01*
X517900Y724520D01*
X520128Y726749D01*
X520846Y727823D01*
X522395Y727855D01*
X524504Y725745D01*
X527696Y723902D01*
X531257Y722948D01*
X534943D01*
X536163Y723275D01*
X536820Y722136D01*
X489342Y674658D01*
X487468Y672374D01*
X486075Y669768D01*
X485217Y666941D01*
X484927Y664000D01*
Y644073D01*
X185000D01*
X182059Y643783D01*
X179232Y642925D01*
X176626Y641532D01*
X174342Y639658D01*
X148342Y613658D01*
X146468Y611374D01*
X145075Y608768D01*
X144217Y605941D01*
X143927Y603000D01*
Y550243D01*
X123757Y530073D01*
X64000D01*
X61059Y529783D01*
X58232Y528925D01*
X55626Y527532D01*
X53342Y525658D01*
X43342Y515658D01*
X41468Y513374D01*
X40075Y510768D01*
X39217Y507940D01*
X38927Y505000D01*
Y480500D01*
X39000Y479763D01*
Y479023D01*
X39144Y478296D01*
X39217Y477560D01*
X39432Y476851D01*
X39576Y476125D01*
X39860Y475441D01*
X40075Y474732D01*
X40424Y474079D01*
X40707Y473395D01*
X41118Y472779D01*
X41468Y472126D01*
X41850Y471660D01*
X41791Y471327D01*
X41188Y470390D01*
X39280D01*
Y440390D01*
X69280D01*
Y442881D01*
X70550Y443450D01*
X72575Y442097D01*
X75305Y440966D01*
X78203Y440390D01*
X81157D01*
X84055Y440966D01*
X86785Y442097D01*
X89242Y443739D01*
X91331Y445828D01*
X91745Y446447D01*
X93015D01*
X93429Y445828D01*
X95518Y443739D01*
X97975Y442097D01*
X100705Y440966D01*
X103603Y440390D01*
X106557D01*
X109455Y440966D01*
X112185Y442097D01*
X114642Y443739D01*
X116731Y445828D01*
X117145Y446447D01*
X118415D01*
X118829Y445828D01*
X120918Y443739D01*
X123375Y442097D01*
X126105Y440966D01*
X129003Y440390D01*
X131957D01*
X134855Y440966D01*
X137585Y442097D01*
X140042Y443739D01*
X142131Y445828D01*
X142545Y446447D01*
X143815D01*
X144229Y445828D01*
X146318Y443739D01*
X148775Y442097D01*
X151505Y440966D01*
X154403Y440390D01*
X157357D01*
X160255Y440966D01*
X162985Y442097D01*
X165442Y443739D01*
X167531Y445828D01*
X167945Y446447D01*
X169215D01*
X169629Y445828D01*
X171718Y443739D01*
X174175Y442097D01*
X176905Y440966D01*
X179803Y440390D01*
X182757D01*
X185655Y440966D01*
X188385Y442097D01*
X190842Y443739D01*
X192931Y445828D01*
X194573Y448285D01*
X194746Y448703D01*
X196013Y448786D01*
X196646Y447690D01*
X198980Y445355D01*
X201840Y443705D01*
X205029Y442850D01*
X205410D01*
Y455390D01*
Y467930D01*
X205029D01*
X201840Y467075D01*
X198980Y465424D01*
X196646Y463090D01*
X196013Y461994D01*
X194746Y462077D01*
X194573Y462495D01*
X192931Y464952D01*
X190842Y467041D01*
X188385Y468683D01*
X185655Y469813D01*
X182757Y470390D01*
X179803D01*
X176905Y469813D01*
X174175Y468683D01*
X171718Y467041D01*
X169629Y464952D01*
X169215Y464333D01*
X167945D01*
X167531Y464952D01*
X165442Y467041D01*
X162985Y468683D01*
X160255Y469813D01*
X157357Y470390D01*
X154403D01*
X151505Y469813D01*
X148775Y468683D01*
X146318Y467041D01*
X144229Y464952D01*
X143815Y464333D01*
X142545D01*
X142131Y464952D01*
X140042Y467041D01*
X137585Y468683D01*
X134855Y469813D01*
X131957Y470390D01*
X129003D01*
X126105Y469813D01*
X123375Y468683D01*
X120918Y467041D01*
X118829Y464952D01*
X118415Y464333D01*
X117145D01*
X116731Y464952D01*
X114642Y467041D01*
X112185Y468683D01*
X109455Y469813D01*
X106557Y470390D01*
X103603D01*
X100705Y469813D01*
X97975Y468683D01*
X95518Y467041D01*
X93429Y464952D01*
X93015Y464333D01*
X91745D01*
X91331Y464952D01*
X89242Y467041D01*
X86785Y468683D01*
X84055Y469813D01*
X81157Y470390D01*
X78203D01*
X75305Y469813D01*
X72575Y468683D01*
X70550Y467330D01*
X69280Y467899D01*
Y470390D01*
X66813D01*
X66209Y471327D01*
X66150Y471660D01*
X66532Y472126D01*
X66881Y472779D01*
X67293Y473395D01*
X67576Y474079D01*
X67925Y474732D01*
X68140Y475441D01*
X68424Y476125D01*
X68568Y476851D01*
X68783Y477560D01*
X68856Y478296D01*
X69000Y479023D01*
Y479763D01*
X69073Y480500D01*
Y498757D01*
X70243Y499927D01*
X130000D01*
X132941Y500217D01*
X135768Y501075D01*
X138374Y502468D01*
X140658Y504342D01*
X169658Y533342D01*
X171532Y535626D01*
X172925Y538232D01*
X173783Y541059D01*
X174073Y544000D01*
Y596757D01*
X191243Y613927D01*
X500000D01*
X500737Y614000D01*
X501477D01*
X502204Y614145D01*
X502940Y614217D01*
X503649Y614432D01*
X504375Y614576D01*
X505059Y614860D01*
X505768Y615075D01*
X506421Y615424D01*
X507105Y615707D01*
X507721Y616119D01*
X508374Y616468D01*
X508946Y616937D01*
X509562Y617349D01*
X510085Y617872D01*
X510658Y618342D01*
X511128Y618914D01*
X511651Y619438D01*
X512063Y620054D01*
X512532Y620626D01*
X512882Y621279D01*
X513293Y621895D01*
X513576Y622579D01*
X513925Y623232D01*
X514140Y623941D01*
X514423Y624625D01*
X514568Y625351D01*
X514783Y626059D01*
X514856Y626797D01*
X515000Y627523D01*
Y628263D01*
X515073Y629000D01*
Y657757D01*
X569158Y711842D01*
X571032Y714126D01*
X572425Y716732D01*
X573283Y719560D01*
X573573Y722500D01*
Y725817D01*
X574746Y726303D01*
X575304Y725745D01*
X578496Y723902D01*
X582057Y722948D01*
X585743D01*
X589304Y723902D01*
X592496Y725745D01*
X595103Y728352D01*
X595965Y729845D01*
X597235D01*
X598097Y728352D01*
X600704Y725745D01*
X603896Y723902D01*
X607457Y722948D01*
X611143D01*
X614704Y723902D01*
X617896Y725745D01*
X620503Y728352D01*
X621365Y729845D01*
X622635D01*
X623497Y728352D01*
X626104Y725745D01*
X629296Y723902D01*
X632857Y722948D01*
X636543D01*
X640104Y723902D01*
X643296Y725745D01*
X645903Y728352D01*
X646765Y729845D01*
X648035D01*
X648897Y728352D01*
X651504Y725745D01*
X654696Y723902D01*
X658257Y722948D01*
X661943D01*
X665504Y723902D01*
X668696Y725745D01*
X670806Y727855D01*
X672354Y727823D01*
X673072Y726749D01*
X675301Y724520D01*
X677921Y722769D01*
X680833Y721563D01*
X683924Y720948D01*
X687076D01*
X690167Y721563D01*
X693079Y722769D01*
X695699Y724520D01*
X697928Y726749D01*
X698946Y728271D01*
X700455Y728245D01*
X702586Y726113D01*
X705674Y724331D01*
X709118Y723408D01*
X709630D01*
Y736948D01*
Y750488D01*
X709118D01*
X705674Y749565D01*
X702586Y747783D01*
X700455Y745651D01*
X698946Y745625D01*
X697928Y747147D01*
X695699Y749376D01*
X693079Y751127D01*
X690167Y752333D01*
X687076Y752948D01*
X683924D01*
X680833Y752333D01*
X677921Y751127D01*
X675301Y749376D01*
X673072Y747147D01*
X672354Y746073D01*
X670806Y746041D01*
X668696Y748151D01*
X665504Y749994D01*
X661943Y750948D01*
X658257D01*
X654696Y749994D01*
X651504Y748151D01*
X648897Y745544D01*
X648035Y744051D01*
X646765D01*
X645903Y745544D01*
X643296Y748151D01*
X640104Y749994D01*
X636543Y750948D01*
X632857D01*
X629296Y749994D01*
X626104Y748151D01*
X623497Y745544D01*
X622635Y744051D01*
X621365D01*
X620503Y745544D01*
X617896Y748151D01*
X614704Y749994D01*
X611143Y750948D01*
X607457D01*
X603896Y749994D01*
X600704Y748151D01*
X598097Y745544D01*
X597235Y744051D01*
X595965D01*
X595103Y745544D01*
X592496Y748151D01*
X589304Y749994D01*
X585743Y750948D01*
X582057D01*
X578496Y749994D01*
X575304Y748151D01*
X574496Y747343D01*
X573323Y747829D01*
Y759750D01*
X573033Y762690D01*
X572175Y765518D01*
X570782Y768124D01*
X569866Y769240D01*
X569651Y769562D01*
X569378Y769836D01*
X568908Y770408D01*
X568658Y770658D01*
X568086Y771128D01*
X567562Y771651D01*
X566946Y772063D01*
X566374Y772532D01*
X565721Y772881D01*
X565105Y773293D01*
X564421Y773576D01*
X563768Y773925D01*
X563059Y774140D01*
X562375Y774424D01*
X561649Y774568D01*
X560941Y774783D01*
X560204Y774855D01*
X559477Y775000D01*
X558737D01*
X558000Y775073D01*
X557263Y775000D01*
X556523D01*
X555796Y774855D01*
X555060Y774783D01*
X554351Y774568D01*
X553625Y774424D01*
X552941Y774140D01*
X552232Y773925D01*
X551579Y773576D01*
X550895Y773293D01*
X550279Y772881D01*
X549626Y772532D01*
X549054Y772063D01*
X548438Y771651D01*
X547915Y771128D01*
X547342Y770658D01*
X546872Y770086D01*
X546349Y769562D01*
X545937Y768946D01*
X545468Y768374D01*
X545118Y767721D01*
X544707Y767105D01*
X544424Y766421D01*
X544075Y765768D01*
X543860Y765059D01*
X543577Y764375D01*
X543432Y763649D01*
X543217Y762941D01*
X543144Y762204D01*
X543000Y761477D01*
Y760737D01*
X542927Y760000D01*
X543000Y759263D01*
Y758523D01*
X543144Y757796D01*
X543177Y757461D01*
Y748329D01*
X542004Y747843D01*
X541696Y748151D01*
X538504Y749994D01*
X534943Y750948D01*
X531257D01*
X527696Y749994D01*
X524504Y748151D01*
X522395Y746041D01*
X520846Y746073D01*
X520128Y747147D01*
X517900Y749376D01*
X515279Y751127D01*
X512367Y752333D01*
X509276Y752948D01*
X506124D01*
X503033Y752333D01*
X500121Y751127D01*
X497501Y749376D01*
X495272Y747147D01*
X494554Y746073D01*
X493006Y746041D01*
X490896Y748151D01*
X487704Y749994D01*
X484143Y750948D01*
X480457D01*
X476896Y749994D01*
X473704Y748151D01*
X471097Y745544D01*
X470235Y744051D01*
X468965D01*
X468103Y745544D01*
X465496Y748151D01*
X462304Y749994D01*
X458743Y750948D01*
X455057D01*
X451496Y749994D01*
X448304Y748151D01*
X446195Y746041D01*
X444646Y746073D01*
X443928Y747147D01*
X441699Y749376D01*
X439079Y751127D01*
X436167Y752333D01*
X433076Y752948D01*
X429924D01*
X426833Y752333D01*
X423921Y751127D01*
X421301Y749376D01*
X419662Y747737D01*
X418800Y747289D01*
X417939Y747737D01*
X416300Y749376D01*
X413679Y751127D01*
X410767Y752333D01*
X407676Y752948D01*
X404524D01*
X401433Y752333D01*
X398521Y751127D01*
X395901Y749376D01*
X393672Y747147D01*
X392954Y746073D01*
X391406Y746041D01*
X389296Y748151D01*
X386104Y749994D01*
X382543Y750948D01*
X378857D01*
X375296Y749994D01*
X372104Y748151D01*
X369995Y746041D01*
X368446Y746073D01*
X367728Y747147D01*
X365499Y749376D01*
X362879Y751127D01*
X359967Y752333D01*
X356876Y752948D01*
X353724D01*
X350633Y752333D01*
X347721Y751127D01*
X345101Y749376D01*
X342872Y747147D01*
X342154Y746073D01*
X340606Y746041D01*
X338496Y748151D01*
X335304Y749994D01*
X331743Y750948D01*
X328057D01*
X324496Y749994D01*
X321304Y748151D01*
X318697Y745544D01*
X317835Y744051D01*
X316565D01*
X315703Y745544D01*
X313096Y748151D01*
X309904Y749994D01*
X306343Y750948D01*
X302657D01*
X299096Y749994D01*
X295904Y748151D01*
X293297Y745544D01*
X292435Y744051D01*
X291165D01*
X290303Y745544D01*
X287696Y748151D01*
X284504Y749994D01*
X280943Y750948D01*
X277257D01*
X273696Y749994D01*
X270504Y748151D01*
X268970Y746617D01*
X267700Y747143D01*
Y750948D01*
X244316D01*
X243560Y751968D01*
X243783Y752704D01*
X244073Y755645D01*
Y787000D01*
X244073Y787000D01*
X243783Y789940D01*
X242925Y792768D01*
X241532Y795374D01*
X239658Y797658D01*
X238658Y798658D01*
X238085Y799128D01*
X237562Y799651D01*
X236946Y800063D01*
X236374Y800532D01*
X235721Y800882D01*
X235105Y801293D01*
X234421Y801576D01*
X233768Y801925D01*
X233059Y802140D01*
X232375Y802423D01*
X231649Y802568D01*
X230940Y802783D01*
X230204Y802856D01*
X229477Y803000D01*
X228737D01*
X228000Y803073D01*
X227263Y803000D01*
X226523D01*
X225796Y802856D01*
X225060Y802783D01*
X224351Y802568D01*
X223625Y802423D01*
X222941Y802140D01*
X222232Y801925D01*
X221579Y801576D01*
X220895Y801293D01*
X220279Y800882D01*
X219626Y800532D01*
X219054Y800063D01*
X218438Y799651D01*
X217915Y799128D01*
X217342Y798658D01*
X216872Y798085D01*
X216349Y797562D01*
X215937Y796946D01*
X215468Y796374D01*
X215119Y795721D01*
X214707Y795105D01*
X214424Y794421D01*
X214075Y793768D01*
X213860Y793059D01*
X213577Y792375D01*
X213432Y791649D01*
X213217Y790940D01*
X213144Y790204D01*
X213000Y789477D01*
Y788737D01*
X212927Y788000D01*
X213000Y787263D01*
Y786523D01*
X213144Y785796D01*
X213217Y785060D01*
X213432Y784351D01*
X213577Y783625D01*
X213860Y782941D01*
X213927Y782718D01*
Y778934D01*
X213538Y778588D01*
X212657Y778300D01*
X212374Y778532D01*
X211721Y778881D01*
X211105Y779293D01*
X210421Y779576D01*
X209768Y779925D01*
X209059Y780140D01*
X208375Y780424D01*
X207649Y780568D01*
X206940Y780783D01*
X206204Y780855D01*
X205477Y781000D01*
X204737D01*
X204000Y781073D01*
X28000D01*
X25059Y780783D01*
X22232Y779925D01*
X19626Y778532D01*
X17342Y776658D01*
X6342Y765658D01*
X6329Y765641D01*
X5059Y766096D01*
Y920941D01*
X795940D01*
X796160Y919685D01*
X793300Y918035D01*
X790965Y915700D01*
X789315Y912840D01*
X788460Y909651D01*
Y909270D01*
X813540D01*
Y909651D01*
X812685Y912840D01*
X811034Y915700D01*
X808700Y918035D01*
X805840Y919685D01*
X806060Y920941D01*
X831000D01*
Y786000D01*
D02*
G37*
%LPC*%
G36*
X610876Y905000D02*
X607724D01*
X604633Y904385D01*
X601721Y903179D01*
X599101Y901428D01*
X597462Y899789D01*
X596600Y899341D01*
X595738Y899789D01*
X594099Y901428D01*
X591479Y903179D01*
X588567Y904385D01*
X585476Y905000D01*
X582324D01*
X579233Y904385D01*
X576321Y903179D01*
X573701Y901428D01*
X571472Y899199D01*
X570754Y898125D01*
X569206Y898093D01*
X567096Y900203D01*
X563904Y902046D01*
X560343Y903000D01*
X556657D01*
X553096Y902046D01*
X549904Y900203D01*
X547297Y897596D01*
X546435Y896103D01*
X545165D01*
X544303Y897596D01*
X541696Y900203D01*
X538504Y902046D01*
X534943Y903000D01*
X531257D01*
X527696Y902046D01*
X524504Y900203D01*
X521897Y897596D01*
X521035Y896103D01*
X519765D01*
X518903Y897596D01*
X516296Y900203D01*
X513104Y902046D01*
X509543Y903000D01*
X505857D01*
X502296Y902046D01*
X499104Y900203D01*
X496497Y897596D01*
X495635Y896103D01*
X494365D01*
X493503Y897596D01*
X490896Y900203D01*
X487704Y902046D01*
X484143Y903000D01*
X480457D01*
X476896Y902046D01*
X473704Y900203D01*
X471097Y897596D01*
X470235Y896103D01*
X468965D01*
X468103Y897596D01*
X465496Y900203D01*
X462304Y902046D01*
X458743Y903000D01*
X455057D01*
X451496Y902046D01*
X448304Y900203D01*
X446194Y898093D01*
X444646Y898125D01*
X443928Y899199D01*
X441699Y901428D01*
X439079Y903179D01*
X436167Y904385D01*
X433076Y905000D01*
X429924D01*
X426833Y904385D01*
X423921Y903179D01*
X421301Y901428D01*
X419661Y899789D01*
X418800Y899341D01*
X417938Y899789D01*
X416299Y901428D01*
X413679Y903179D01*
X410767Y904385D01*
X407676Y905000D01*
X404524D01*
X401433Y904385D01*
X398521Y903179D01*
X395901Y901428D01*
X393672Y899199D01*
X392954Y898125D01*
X391405Y898093D01*
X389296Y900203D01*
X386104Y902046D01*
X382543Y903000D01*
X378857D01*
X375296Y902046D01*
X372104Y900203D01*
X369497Y897596D01*
X368635Y896103D01*
X367365D01*
X366503Y897596D01*
X363896Y900203D01*
X360704Y902046D01*
X357143Y903000D01*
X353457D01*
X349896Y902046D01*
X346704Y900203D01*
X344097Y897596D01*
X343235Y896103D01*
X341965D01*
X341103Y897596D01*
X338496Y900203D01*
X335304Y902046D01*
X331743Y903000D01*
X328057D01*
X324496Y902046D01*
X321304Y900203D01*
X318697Y897596D01*
X317835Y896103D01*
X316565D01*
X315703Y897596D01*
X313096Y900203D01*
X309904Y902046D01*
X306343Y903000D01*
X302657D01*
X299096Y902046D01*
X295904Y900203D01*
X293297Y897596D01*
X291454Y894404D01*
X291162Y893312D01*
X289892D01*
X289853Y893454D01*
X288334Y896086D01*
X286186Y898234D01*
X283554Y899753D01*
X280619Y900540D01*
X280370D01*
Y889000D01*
Y877460D01*
X280619D01*
X283554Y878247D01*
X286186Y879766D01*
X288334Y881914D01*
X289853Y884546D01*
X289892Y884688D01*
X291162D01*
X291454Y883596D01*
X293297Y880404D01*
X295904Y877797D01*
X299096Y875954D01*
X302657Y875000D01*
X306343D01*
X309904Y875954D01*
X313096Y877797D01*
X315703Y880404D01*
X316565Y881897D01*
X317835D01*
X318697Y880404D01*
X321304Y877797D01*
X324496Y875954D01*
X328057Y875000D01*
X331743D01*
X335304Y875954D01*
X338496Y877797D01*
X341103Y880404D01*
X341965Y881897D01*
X343235D01*
X344097Y880404D01*
X346704Y877797D01*
X349896Y875954D01*
X353457Y875000D01*
X357143D01*
X360704Y875954D01*
X363896Y877797D01*
X366503Y880404D01*
X367365Y881897D01*
X368635D01*
X369497Y880404D01*
X372104Y877797D01*
X375296Y875954D01*
X378857Y875000D01*
X382543D01*
X386104Y875954D01*
X389296Y877797D01*
X391405Y879907D01*
X392954Y879875D01*
X393672Y878801D01*
X395901Y876572D01*
X398521Y874821D01*
X401433Y873615D01*
X404524Y873000D01*
X407676D01*
X410767Y873615D01*
X413679Y874821D01*
X416299Y876572D01*
X417938Y878211D01*
X418800Y878659D01*
X419661Y878211D01*
X421301Y876572D01*
X423921Y874821D01*
X426833Y873615D01*
X429924Y873000D01*
X433076D01*
X436167Y873615D01*
X439079Y874821D01*
X441699Y876572D01*
X443928Y878801D01*
X444646Y879875D01*
X446194Y879907D01*
X448304Y877797D01*
X451496Y875954D01*
X455057Y875000D01*
X458743D01*
X462304Y875954D01*
X465496Y877797D01*
X468103Y880404D01*
X468965Y881897D01*
X470235D01*
X471097Y880404D01*
X473704Y877797D01*
X476896Y875954D01*
X480457Y875000D01*
X484143D01*
X487704Y875954D01*
X490896Y877797D01*
X493503Y880404D01*
X494365Y881897D01*
X495635D01*
X496497Y880404D01*
X499104Y877797D01*
X502296Y875954D01*
X505857Y875000D01*
X509543D01*
X513104Y875954D01*
X516296Y877797D01*
X518903Y880404D01*
X519765Y881897D01*
X521035D01*
X521897Y880404D01*
X524504Y877797D01*
X527696Y875954D01*
X531257Y875000D01*
X534943D01*
X538504Y875954D01*
X541696Y877797D01*
X544303Y880404D01*
X545165Y881897D01*
X546435D01*
X547297Y880404D01*
X549904Y877797D01*
X553096Y875954D01*
X556657Y875000D01*
X560343D01*
X563904Y875954D01*
X567096Y877797D01*
X569206Y879907D01*
X570754Y879875D01*
X571472Y878801D01*
X573701Y876572D01*
X576321Y874821D01*
X579233Y873615D01*
X582324Y873000D01*
X585476D01*
X588567Y873615D01*
X591479Y874821D01*
X594099Y876572D01*
X595738Y878211D01*
X596600Y878659D01*
X597462Y878211D01*
X599101Y876572D01*
X601721Y874821D01*
X604633Y873615D01*
X607724Y873000D01*
X610876D01*
X613967Y873615D01*
X616879Y874821D01*
X619499Y876572D01*
X621728Y878801D01*
X622446Y879875D01*
X623994Y879907D01*
X626104Y877797D01*
X629296Y875954D01*
X632857Y875000D01*
X636543D01*
X640104Y875954D01*
X643296Y877797D01*
X645903Y880404D01*
X646765Y881897D01*
X648035D01*
X648897Y880404D01*
X651504Y877797D01*
X654696Y875954D01*
X658257Y875000D01*
X661943D01*
X665504Y875954D01*
X668696Y877797D01*
X671303Y880404D01*
X672165Y881897D01*
X673435D01*
X674297Y880404D01*
X676904Y877797D01*
X680096Y875954D01*
X683657Y875000D01*
X687343D01*
X690904Y875954D01*
X694096Y877797D01*
X696703Y880404D01*
X697565Y881897D01*
X698835D01*
X699697Y880404D01*
X702304Y877797D01*
X705496Y875954D01*
X709057Y875000D01*
X712743D01*
X716304Y875954D01*
X719496Y877797D01*
X722103Y880404D01*
X722965Y881897D01*
X724235D01*
X725097Y880404D01*
X727704Y877797D01*
X730896Y875954D01*
X734457Y875000D01*
X738143D01*
X741704Y875954D01*
X744896Y877797D01*
X747503Y880404D01*
X749346Y883596D01*
X750300Y887157D01*
Y890843D01*
X749346Y894404D01*
X747503Y897596D01*
X744896Y900203D01*
X741704Y902046D01*
X738143Y903000D01*
X734457D01*
X730896Y902046D01*
X727704Y900203D01*
X725097Y897596D01*
X724235Y896103D01*
X722965D01*
X722103Y897596D01*
X719496Y900203D01*
X716304Y902046D01*
X712743Y903000D01*
X709057D01*
X705496Y902046D01*
X702304Y900203D01*
X699697Y897596D01*
X698835Y896103D01*
X697565D01*
X696703Y897596D01*
X694096Y900203D01*
X690904Y902046D01*
X687343Y903000D01*
X683657D01*
X680096Y902046D01*
X676904Y900203D01*
X674297Y897596D01*
X673435Y896103D01*
X672165D01*
X671303Y897596D01*
X668696Y900203D01*
X665504Y902046D01*
X661943Y903000D01*
X658257D01*
X654696Y902046D01*
X651504Y900203D01*
X648897Y897596D01*
X648035Y896103D01*
X646765D01*
X645903Y897596D01*
X643296Y900203D01*
X640104Y902046D01*
X636543Y903000D01*
X632857D01*
X629296Y902046D01*
X626104Y900203D01*
X623994Y898093D01*
X622446Y898125D01*
X621728Y899199D01*
X619499Y901428D01*
X616879Y903179D01*
X613967Y904385D01*
X610876Y905000D01*
D02*
G37*
G36*
X813540Y906730D02*
X788460D01*
Y906349D01*
X789315Y903160D01*
X790965Y900300D01*
X793300Y897965D01*
X795543Y896670D01*
X795627Y896219D01*
X795474Y895244D01*
X792686Y893635D01*
X790165Y891114D01*
X788383Y888026D01*
X787460Y884583D01*
Y884070D01*
X801000D01*
X814540D01*
Y884583D01*
X813617Y888026D01*
X811835Y891114D01*
X809314Y893635D01*
X806526Y895244D01*
X806374Y896219D01*
X806457Y896670D01*
X808700Y897965D01*
X811034Y900300D01*
X812685Y903160D01*
X813540Y906349D01*
Y906730D01*
D02*
G37*
G36*
X269700Y905000D02*
X237700D01*
Y873000D01*
X269700D01*
Y880284D01*
X270970Y880810D01*
X272014Y879766D01*
X274646Y878247D01*
X277581Y877460D01*
X277830D01*
Y889000D01*
Y900540D01*
X277581D01*
X274646Y899753D01*
X272014Y898234D01*
X270970Y897190D01*
X269700Y897716D01*
Y905000D01*
D02*
G37*
G36*
X293651Y849540D02*
X293270D01*
Y838270D01*
X304540D01*
Y838651D01*
X303685Y841840D01*
X302034Y844700D01*
X299700Y847035D01*
X296840Y848685D01*
X293651Y849540D01*
D02*
G37*
G36*
X290730D02*
X290349D01*
X287160Y848685D01*
X284300Y847035D01*
X281966Y844700D01*
X280315Y841840D01*
X279460Y838651D01*
Y838270D01*
X290730D01*
Y849540D01*
D02*
G37*
G36*
X304540Y835730D02*
X293270D01*
Y824460D01*
X293651D01*
X296840Y825315D01*
X299700Y826965D01*
X302034Y829300D01*
X303685Y832160D01*
X304540Y835349D01*
Y835730D01*
D02*
G37*
G36*
X290730D02*
X279460D01*
Y835349D01*
X280315Y832160D01*
X281966Y829300D01*
X284300Y826965D01*
X287160Y825315D01*
X290349Y824460D01*
X290730D01*
Y835730D01*
D02*
G37*
G36*
X814540Y881530D02*
X801000D01*
X787460D01*
Y881017D01*
X788383Y877574D01*
X790165Y874486D01*
X792686Y871965D01*
X793130Y871709D01*
X793179Y870214D01*
X791438Y869051D01*
X789349Y866962D01*
X787707Y864505D01*
X786577Y861775D01*
X786000Y858877D01*
Y855923D01*
X786577Y853025D01*
X787707Y850295D01*
X788492Y849120D01*
X787894Y848000D01*
X785000D01*
Y816000D01*
X817000D01*
Y848000D01*
X814107D01*
X813508Y849120D01*
X814293Y850295D01*
X815424Y853025D01*
X816000Y855923D01*
Y858877D01*
X815424Y861775D01*
X814293Y864505D01*
X812651Y866962D01*
X810562Y869051D01*
X808821Y870214D01*
X808870Y871709D01*
X809314Y871965D01*
X811835Y874486D01*
X813617Y877574D01*
X814540Y881017D01*
Y881530D01*
D02*
G37*
G36*
X123651Y809540D02*
X123270D01*
Y798270D01*
X134540D01*
Y798651D01*
X133685Y801840D01*
X132035Y804700D01*
X129700Y807035D01*
X126840Y808685D01*
X123651Y809540D01*
D02*
G37*
G36*
X120730D02*
X120349D01*
X117160Y808685D01*
X114300Y807035D01*
X111966Y804700D01*
X110315Y801840D01*
X109460Y798651D01*
Y798270D01*
X120730D01*
Y809540D01*
D02*
G37*
G36*
X134540Y795730D02*
X123270D01*
Y784460D01*
X123651D01*
X126840Y785315D01*
X129700Y786965D01*
X132035Y789300D01*
X133685Y792160D01*
X134540Y795349D01*
Y795730D01*
D02*
G37*
G36*
X120730D02*
X109460D01*
Y795349D01*
X110315Y792160D01*
X111966Y789300D01*
X114300Y786965D01*
X117160Y785315D01*
X120349Y784460D01*
X120730D01*
Y795730D01*
D02*
G37*
G36*
X737819Y748488D02*
X737570D01*
Y738218D01*
X747840D01*
Y738467D01*
X747054Y741402D01*
X745534Y744034D01*
X743386Y746182D01*
X740754Y747702D01*
X737819Y748488D01*
D02*
G37*
G36*
X747840Y735678D02*
X737570D01*
Y725408D01*
X737819D01*
X740754Y726195D01*
X743386Y727714D01*
X745534Y729862D01*
X747054Y732494D01*
X747840Y735429D01*
Y735678D01*
D02*
G37*
G36*
X712683Y750488D02*
X712170D01*
Y736948D01*
Y723408D01*
X712683D01*
X716126Y724331D01*
X719214Y726113D01*
X721735Y728634D01*
X723517Y731722D01*
X723978Y733441D01*
X725293D01*
X725547Y732494D01*
X727066Y729862D01*
X729214Y727714D01*
X731846Y726195D01*
X734781Y725408D01*
X735030D01*
Y736948D01*
Y748488D01*
X734781D01*
X731846Y747702D01*
X729214Y746182D01*
X727066Y744034D01*
X725547Y741402D01*
X725293Y740455D01*
X723978D01*
X723517Y742174D01*
X721735Y745262D01*
X719214Y747783D01*
X716126Y749565D01*
X712683Y750488D01*
D02*
G37*
G36*
X144651Y696540D02*
X144270D01*
Y685270D01*
X155540D01*
Y685651D01*
X154685Y688840D01*
X153034Y691700D01*
X150700Y694035D01*
X147840Y695685D01*
X144651Y696540D01*
D02*
G37*
G36*
X141730D02*
X141349D01*
X138160Y695685D01*
X135300Y694035D01*
X132965Y691700D01*
X131315Y688840D01*
X130460Y685651D01*
Y685270D01*
X141730D01*
Y696540D01*
D02*
G37*
G36*
X44651Y695540D02*
X44270D01*
Y684270D01*
X55540D01*
Y684651D01*
X54685Y687840D01*
X53035Y690700D01*
X50700Y693035D01*
X47840Y694685D01*
X44651Y695540D01*
D02*
G37*
G36*
X155540Y682730D02*
X144270D01*
Y671460D01*
X144651D01*
X147840Y672315D01*
X150700Y673966D01*
X153034Y676300D01*
X154685Y679160D01*
X155540Y682349D01*
Y682730D01*
D02*
G37*
G36*
X141730D02*
X130460D01*
Y682349D01*
X131315Y679160D01*
X132965Y676300D01*
X135300Y673966D01*
X138160Y672315D01*
X141349Y671460D01*
X141730D01*
Y682730D01*
D02*
G37*
G36*
X55540Y681730D02*
X44270D01*
Y670460D01*
X44651D01*
X47840Y671315D01*
X50700Y672965D01*
X53035Y675300D01*
X54685Y678160D01*
X55540Y681349D01*
Y681730D01*
D02*
G37*
G36*
X61651Y655540D02*
X61270D01*
Y644270D01*
X72540D01*
Y644651D01*
X71685Y647840D01*
X70034Y650700D01*
X67700Y653035D01*
X64840Y654685D01*
X61651Y655540D01*
D02*
G37*
G36*
X58730D02*
X58349D01*
X55160Y654685D01*
X52300Y653035D01*
X49966Y650700D01*
X48315Y647840D01*
X47460Y644651D01*
Y644270D01*
X58730D01*
Y655540D01*
D02*
G37*
G36*
X72540Y641730D02*
X61270D01*
Y630460D01*
X61651D01*
X64840Y631315D01*
X67700Y632966D01*
X70034Y635300D01*
X71685Y638160D01*
X72540Y641349D01*
Y641730D01*
D02*
G37*
G36*
X58730D02*
X47460D01*
Y641349D01*
X48315Y638160D01*
X49966Y635300D01*
X52300Y632966D01*
X55160Y631315D01*
X58349Y630460D01*
X58730D01*
Y641730D01*
D02*
G37*
G36*
X125000Y658000D02*
X95000D01*
Y628000D01*
X125000D01*
Y658000D01*
D02*
G37*
G36*
X556304Y638765D02*
X553496D01*
X550784Y638038D01*
X548352Y636634D01*
X546366Y634648D01*
X544962Y632216D01*
X544235Y629504D01*
Y626696D01*
X544962Y623983D01*
X546366Y621552D01*
X548352Y619566D01*
X550784Y618162D01*
X553496Y617435D01*
X556304D01*
X559016Y618162D01*
X561449Y619566D01*
X563434Y621552D01*
X564838Y623983D01*
X565565Y626696D01*
Y629504D01*
X564838Y632216D01*
X563434Y634648D01*
X561449Y636634D01*
X559016Y638038D01*
X556304Y638765D01*
D02*
G37*
G36*
Y613365D02*
X553496D01*
X550784Y612638D01*
X548352Y611234D01*
X546366Y609248D01*
X544962Y606816D01*
X544235Y604104D01*
Y601296D01*
X544962Y598583D01*
X546366Y596152D01*
X548352Y594166D01*
X550784Y592762D01*
X553496Y592035D01*
X556304D01*
X559016Y592762D01*
X561449Y594166D01*
X563434Y596152D01*
X564838Y598583D01*
X565565Y601296D01*
Y604104D01*
X564838Y606816D01*
X563434Y609248D01*
X561449Y611234D01*
X559016Y612638D01*
X556304Y613365D01*
D02*
G37*
G36*
X107377Y579418D02*
X104423D01*
X101525Y578841D01*
X98795Y577711D01*
X96338Y576069D01*
X94249Y573980D01*
X93835Y573360D01*
X92565D01*
X92151Y573980D01*
X90062Y576069D01*
X87605Y577711D01*
X84875Y578841D01*
X81977Y579418D01*
X79023D01*
X76125Y578841D01*
X73395Y577711D01*
X70938Y576069D01*
X68849Y573980D01*
X67207Y571523D01*
X67034Y571105D01*
X65767Y571022D01*
X65135Y572118D01*
X62800Y574452D01*
X59940Y576103D01*
X56751Y576958D01*
X56370D01*
Y564418D01*
Y551878D01*
X56751D01*
X59940Y552732D01*
X62800Y554383D01*
X65135Y556718D01*
X65767Y557813D01*
X67034Y557730D01*
X67207Y557313D01*
X68849Y554856D01*
X70938Y552766D01*
X73395Y551125D01*
X76125Y549994D01*
X79023Y549418D01*
X81977D01*
X84875Y549994D01*
X87605Y551125D01*
X90062Y552766D01*
X92151Y554856D01*
X92565Y555475D01*
X93835D01*
X94249Y554856D01*
X96338Y552766D01*
X98795Y551125D01*
X101525Y549994D01*
X104423Y549418D01*
X107377D01*
X110275Y549994D01*
X113005Y551125D01*
X115462Y552766D01*
X117551Y554856D01*
X119193Y557313D01*
X120324Y560042D01*
X120900Y562940D01*
Y565895D01*
X120324Y568793D01*
X119193Y571523D01*
X117551Y573980D01*
X115462Y576069D01*
X113005Y577711D01*
X110275Y578841D01*
X107377Y579418D01*
D02*
G37*
G36*
X264085Y603800D02*
X226085D01*
Y572800D01*
X229359D01*
X230009Y571530D01*
X228880Y568804D01*
X228599Y566670D01*
X245085D01*
X261570D01*
X261289Y568804D01*
X260160Y571530D01*
X260811Y572800D01*
X264085D01*
Y603800D01*
D02*
G37*
G36*
X53830Y576958D02*
X53449D01*
X50260Y576103D01*
X47400Y574452D01*
X45065Y572118D01*
X43415Y569258D01*
X42560Y566069D01*
Y565688D01*
X53830D01*
Y576958D01*
D02*
G37*
G36*
X460651Y573540D02*
X460270D01*
Y562270D01*
X471540D01*
Y562651D01*
X470685Y565840D01*
X469035Y568700D01*
X466700Y571035D01*
X463840Y572685D01*
X460651Y573540D01*
D02*
G37*
G36*
X457730D02*
X457349D01*
X454160Y572685D01*
X451300Y571035D01*
X448965Y568700D01*
X447315Y565840D01*
X446460Y562651D01*
Y562270D01*
X457730D01*
Y573540D01*
D02*
G37*
G36*
X53830Y563148D02*
X42560D01*
Y562767D01*
X43415Y559577D01*
X45065Y556718D01*
X47400Y554383D01*
X50260Y552732D01*
X53449Y551878D01*
X53830D01*
Y563148D01*
D02*
G37*
G36*
X471540Y559730D02*
X460270D01*
Y548460D01*
X460651D01*
X463840Y549315D01*
X466700Y550965D01*
X469035Y553300D01*
X470685Y556160D01*
X471540Y559349D01*
Y559730D01*
D02*
G37*
G36*
X457730D02*
X446460D01*
Y559349D01*
X447315Y556160D01*
X448965Y553300D01*
X451300Y550965D01*
X454160Y549315D01*
X457349Y548460D01*
X457730D01*
Y559730D01*
D02*
G37*
G36*
X261570Y564130D02*
X245085D01*
X228599D01*
X228880Y561996D01*
X230194Y558824D01*
X232285Y556100D01*
X232020Y554702D01*
X230572Y553513D01*
X228635Y551153D01*
X227195Y548460D01*
X226309Y545539D01*
X226010Y542500D01*
X226309Y539462D01*
X227195Y536540D01*
X228635Y533847D01*
X230572Y531487D01*
X232932Y529550D01*
X235625Y528111D01*
X238546Y527224D01*
X241585Y526925D01*
X248585D01*
X251623Y527224D01*
X254545Y528111D01*
X257238Y529550D01*
X259598Y531487D01*
X261535Y533847D01*
X262974Y536540D01*
X263860Y539462D01*
X264160Y542500D01*
X263860Y545539D01*
X262974Y548460D01*
X261535Y551153D01*
X259598Y553513D01*
X258150Y554702D01*
X257885Y556100D01*
X259975Y558824D01*
X261289Y561996D01*
X261570Y564130D01*
D02*
G37*
G36*
X208500Y606375D02*
X201500D01*
X198461Y606076D01*
X195540Y605189D01*
X192847Y603750D01*
X190487Y601813D01*
X188550Y599453D01*
X187111Y596760D01*
X186224Y593839D01*
X185925Y590800D01*
X186224Y587761D01*
X187111Y584840D01*
X188550Y582147D01*
X190487Y579787D01*
X192847Y577850D01*
X194178Y577138D01*
X194301Y575632D01*
X192585Y574315D01*
X190581Y571704D01*
X189322Y568663D01*
X188892Y565400D01*
X189322Y562137D01*
X190581Y559096D01*
X192366Y556770D01*
X191944Y555500D01*
X186000D01*
Y524500D01*
X224000D01*
Y555500D01*
X218056D01*
X217634Y556770D01*
X219419Y559096D01*
X220678Y562137D01*
X221108Y565400D01*
X220678Y568663D01*
X219419Y571704D01*
X217415Y574315D01*
X215699Y575632D01*
X215822Y577138D01*
X217153Y577850D01*
X219513Y579787D01*
X221450Y582147D01*
X222889Y584840D01*
X223776Y587761D01*
X224075Y590800D01*
X223776Y593839D01*
X222889Y596760D01*
X221450Y599453D01*
X219513Y601813D01*
X217153Y603750D01*
X214460Y605189D01*
X211539Y606076D01*
X208500Y606375D01*
D02*
G37*
G36*
X315651Y505540D02*
X315270D01*
Y494270D01*
X326540D01*
Y494651D01*
X325685Y497840D01*
X324035Y500700D01*
X321700Y503035D01*
X318840Y504685D01*
X315651Y505540D01*
D02*
G37*
G36*
X312730D02*
X312349D01*
X309160Y504685D01*
X306300Y503035D01*
X303965Y500700D01*
X302315Y497840D01*
X301460Y494651D01*
Y494270D01*
X312730D01*
Y505540D01*
D02*
G37*
G36*
X326540Y491730D02*
X315270D01*
Y480460D01*
X315651D01*
X318840Y481315D01*
X321700Y482966D01*
X324035Y485300D01*
X325685Y488160D01*
X326540Y491349D01*
Y491730D01*
D02*
G37*
G36*
X312730D02*
X301460D01*
Y491349D01*
X302315Y488160D01*
X303965Y485300D01*
X306300Y482966D01*
X309160Y481315D01*
X312349Y480460D01*
X312730D01*
Y491730D01*
D02*
G37*
G36*
X233557Y470390D02*
X230603D01*
X227705Y469813D01*
X224975Y468683D01*
X222518Y467041D01*
X220429Y464952D01*
X218787Y462495D01*
X218614Y462077D01*
X217347Y461994D01*
X216714Y463090D01*
X214380Y465424D01*
X211520Y467075D01*
X208331Y467930D01*
X207950D01*
Y455390D01*
Y442850D01*
X208331D01*
X211520Y443705D01*
X214380Y445355D01*
X216714Y447690D01*
X217347Y448786D01*
X218614Y448703D01*
X218787Y448285D01*
X220429Y445828D01*
X222518Y443739D01*
X224975Y442097D01*
X227705Y440966D01*
X230603Y440390D01*
X233557D01*
X236455Y440966D01*
X239185Y442097D01*
X241642Y443739D01*
X243731Y445828D01*
X245373Y448285D01*
X246504Y451015D01*
X247080Y453913D01*
Y456867D01*
X246504Y459765D01*
X245373Y462495D01*
X243731Y464952D01*
X241642Y467041D01*
X239185Y468683D01*
X236455Y469813D01*
X233557Y470390D01*
D02*
G37*
G36*
X352500Y454000D02*
X321500D01*
Y450726D01*
X320230Y450075D01*
X317504Y451204D01*
X315370Y451485D01*
Y435000D01*
Y418515D01*
X317504Y418796D01*
X320230Y419925D01*
X321500Y419274D01*
Y416000D01*
X352500D01*
Y454000D01*
D02*
G37*
G36*
X291200Y454075D02*
X288162Y453776D01*
X285240Y452889D01*
X282547Y451450D01*
X280187Y449513D01*
X278250Y447153D01*
X276811Y444460D01*
X275924Y441539D01*
X275625Y438500D01*
Y431500D01*
X275924Y428461D01*
X276811Y425540D01*
X278250Y422847D01*
X280187Y420487D01*
X282547Y418550D01*
X285240Y417111D01*
X288162Y416224D01*
X291200Y415925D01*
X294238Y416224D01*
X297160Y417111D01*
X299853Y418550D01*
X302213Y420487D01*
X303402Y421935D01*
X304800Y422200D01*
X307524Y420110D01*
X310696Y418796D01*
X312830Y418515D01*
Y435000D01*
Y451485D01*
X310696Y451204D01*
X307524Y449890D01*
X304800Y447800D01*
X303402Y448065D01*
X302213Y449513D01*
X299853Y451450D01*
X297160Y452889D01*
X294238Y453776D01*
X291200Y454075D01*
D02*
G37*
G36*
X384600Y594075D02*
X381562Y593776D01*
X378640Y592889D01*
X375947Y591450D01*
X373587Y589513D01*
X371650Y587153D01*
X370211Y584460D01*
X369324Y581539D01*
X369025Y578500D01*
Y571500D01*
X369324Y568461D01*
X370211Y565540D01*
X370479Y565037D01*
Y554524D01*
X369817Y552341D01*
X369527Y549400D01*
X369817Y546460D01*
X370675Y543632D01*
X372068Y541026D01*
X373942Y538742D01*
X442694Y469990D01*
X444772Y468284D01*
X442897Y463757D01*
X441937Y458927D01*
Y454003D01*
X442897Y449173D01*
X444782Y444623D01*
X446310Y442337D01*
X445845Y441642D01*
X443961Y437092D01*
X443000Y432262D01*
Y427338D01*
X443961Y422508D01*
X445845Y417958D01*
X448581Y413863D01*
X452063Y410381D01*
X456158Y407645D01*
X460708Y405761D01*
X465538Y404800D01*
X470462D01*
X475292Y405761D01*
X479842Y407645D01*
X483937Y410381D01*
X487419Y413863D01*
X490155Y417958D01*
X492039Y422508D01*
X493000Y427338D01*
Y432262D01*
X492039Y437092D01*
X490155Y441642D01*
X488627Y443928D01*
X489091Y444623D01*
X490976Y449173D01*
X491937Y454003D01*
Y458927D01*
X490976Y463757D01*
X489383Y467603D01*
X490155Y468758D01*
X492039Y473308D01*
X493000Y478138D01*
Y483062D01*
X492039Y487892D01*
X490155Y492442D01*
X487419Y496536D01*
X483937Y500019D01*
X479842Y502755D01*
X475292Y504639D01*
X470462Y505600D01*
X465538D01*
X460708Y504639D01*
X456158Y502755D01*
X454002Y501314D01*
X400489Y554827D01*
X400975Y556000D01*
X425500D01*
Y594000D01*
X394500D01*
Y591912D01*
X393352Y591369D01*
X393253Y591450D01*
X390560Y592889D01*
X387639Y593776D01*
X384600Y594075D01*
D02*
G37*
G36*
X339800Y401075D02*
X336762Y400776D01*
X333840Y399889D01*
X331147Y398450D01*
X328787Y396513D01*
X326850Y394153D01*
X326138Y392822D01*
X324632Y392699D01*
X323315Y394415D01*
X320704Y396419D01*
X317663Y397678D01*
X314400Y398108D01*
X311137Y397678D01*
X308096Y396419D01*
X305770Y394634D01*
X304500Y395056D01*
Y401000D01*
X273500D01*
Y363000D01*
X304500D01*
Y368944D01*
X305770Y369366D01*
X308096Y367581D01*
X311137Y366322D01*
X314400Y365892D01*
X317663Y366322D01*
X320704Y367581D01*
X323315Y369585D01*
X323625Y369989D01*
X324827Y369580D01*
Y355100D01*
X325117Y352160D01*
X325565Y350684D01*
X325577Y350625D01*
X325600Y350569D01*
X325927Y349488D01*
Y244000D01*
X326217Y241059D01*
X327075Y238232D01*
X328468Y235626D01*
X330342Y233342D01*
X331342Y232342D01*
X331914Y231872D01*
X332438Y231349D01*
X333054Y230937D01*
X333626Y230468D01*
X334279Y230119D01*
X334895Y229707D01*
X335579Y229424D01*
X336232Y229075D01*
X336941Y228860D01*
X337625Y228577D01*
X338351Y228432D01*
X339059Y228217D01*
X339796Y228144D01*
X340523Y228000D01*
X341263D01*
X342000Y227927D01*
X342737Y228000D01*
X343477D01*
X344204Y228144D01*
X344940Y228217D01*
X345649Y228432D01*
X346375Y228577D01*
X347059Y228860D01*
X347768Y229075D01*
X348421Y229424D01*
X349105Y229707D01*
X349721Y230119D01*
X350374Y230468D01*
X350946Y230937D01*
X351562Y231349D01*
X352085Y231872D01*
X352658Y232342D01*
X353128Y232915D01*
X353651Y233438D01*
X354063Y234054D01*
X354532Y234626D01*
X354882Y235279D01*
X355293Y235895D01*
X355576Y236579D01*
X355925Y237232D01*
X356140Y237941D01*
X356423Y238625D01*
X356568Y239351D01*
X356783Y240060D01*
X356856Y240796D01*
X357000Y241523D01*
Y242263D01*
X357073Y243000D01*
X357000Y243737D01*
Y244477D01*
X356856Y245204D01*
X356783Y245940D01*
X356568Y246649D01*
X356423Y247375D01*
X356140Y248059D01*
X356073Y248282D01*
Y354000D01*
X356073Y354000D01*
X355783Y356940D01*
X354973Y359612D01*
Y375121D01*
X355076Y375462D01*
X355375Y378500D01*
Y385500D01*
X355076Y388539D01*
X354189Y391460D01*
X352750Y394153D01*
X350813Y396513D01*
X348453Y398450D01*
X345760Y399889D01*
X342839Y400776D01*
X339800Y401075D01*
D02*
G37*
G36*
X469490Y394125D02*
X466510D01*
X463588Y393544D01*
X460836Y392404D01*
X458358Y390748D01*
X456252Y388642D01*
X454596Y386164D01*
X453456Y383412D01*
X452875Y380490D01*
Y377510D01*
X453456Y374588D01*
X454596Y371836D01*
X456252Y369358D01*
X458358Y367252D01*
X460836Y365596D01*
X463588Y364456D01*
X466510Y363875D01*
X469490D01*
X472412Y364456D01*
X475164Y365596D01*
X477642Y367252D01*
X479748Y369358D01*
X481404Y371836D01*
X482544Y374588D01*
X483125Y377510D01*
Y380490D01*
X482544Y383412D01*
X481404Y386164D01*
X479748Y388642D01*
X477642Y390748D01*
X475164Y392404D01*
X472412Y393544D01*
X469490Y394125D01*
D02*
G37*
G36*
X160651Y347540D02*
X160270D01*
Y336270D01*
X171540D01*
Y336651D01*
X170685Y339840D01*
X169035Y342700D01*
X166700Y345034D01*
X163840Y346685D01*
X160651Y347540D01*
D02*
G37*
G36*
X157730D02*
X157349D01*
X154160Y346685D01*
X151300Y345034D01*
X148966Y342700D01*
X147315Y339840D01*
X146460Y336651D01*
Y336270D01*
X157730D01*
Y347540D01*
D02*
G37*
G36*
X171540Y333730D02*
X160270D01*
Y322460D01*
X160651D01*
X163840Y323315D01*
X166700Y324966D01*
X169035Y327300D01*
X170685Y330160D01*
X171540Y333349D01*
Y333730D01*
D02*
G37*
G36*
X157730D02*
X146460D01*
Y333349D01*
X147315Y330160D01*
X148966Y327300D01*
X151300Y324966D01*
X154160Y323315D01*
X157349Y322460D01*
X157730D01*
Y333730D01*
D02*
G37*
G36*
X238000Y335103D02*
X237213Y335000D01*
X236420D01*
X235654Y334795D01*
X234867Y334691D01*
X234135Y334388D01*
X233368Y334182D01*
X232681Y333786D01*
X231948Y333482D01*
X231319Y332999D01*
X230632Y332602D01*
X230071Y332041D01*
X229442Y331558D01*
X197987Y300104D01*
X117000D01*
X116213Y300000D01*
X115420D01*
X114654Y299795D01*
X113867Y299691D01*
X113134Y299387D01*
X112368Y299182D01*
X111681Y298786D01*
X110948Y298482D01*
X110319Y297999D01*
X109632Y297602D01*
X109071Y297041D01*
X108441Y296558D01*
X107959Y295929D01*
X107398Y295368D01*
X107001Y294681D01*
X106518Y294052D01*
X106214Y293319D01*
X105818Y292632D01*
X105612Y291866D01*
X105309Y291133D01*
X105205Y290346D01*
X105000Y289580D01*
Y288787D01*
X104896Y288000D01*
X105000Y287213D01*
Y286420D01*
X105205Y285654D01*
X105309Y284867D01*
X105612Y284134D01*
X105818Y283368D01*
X106214Y282681D01*
X106518Y281948D01*
X107001Y281319D01*
X107398Y280632D01*
X107959Y280071D01*
X108441Y279442D01*
X109071Y278959D01*
X109632Y278398D01*
X110319Y278001D01*
X110948Y277518D01*
X111681Y277214D01*
X112368Y276818D01*
X113134Y276612D01*
X113867Y276309D01*
X114654Y276205D01*
X115420Y276000D01*
X116213D01*
X117000Y275896D01*
X203000D01*
X206133Y276309D01*
X209052Y277518D01*
X211558Y279442D01*
X246558Y314442D01*
X247041Y315071D01*
X247602Y315632D01*
X247999Y316319D01*
X248482Y316948D01*
X248785Y317681D01*
X249182Y318368D01*
X249388Y319134D01*
X249691Y319867D01*
X249795Y320654D01*
X250000Y321420D01*
Y322213D01*
X250104Y323000D01*
X250000Y323787D01*
Y324580D01*
X249795Y325346D01*
X249691Y326133D01*
X249388Y326866D01*
X249182Y327632D01*
X248785Y328319D01*
X248482Y329052D01*
X247999Y329681D01*
X247602Y330368D01*
X247041Y330929D01*
X246558Y331558D01*
X245929Y332041D01*
X245368Y332602D01*
X244681Y332999D01*
X244052Y333482D01*
X243319Y333786D01*
X242632Y334182D01*
X241866Y334388D01*
X241133Y334691D01*
X240346Y334795D01*
X239580Y335000D01*
X238787D01*
X238000Y335103D01*
D02*
G37*
G36*
X470167Y350200D02*
X465833D01*
X461583Y349355D01*
X457579Y347696D01*
X453976Y345289D01*
X450911Y342224D01*
X448504Y338621D01*
X446845Y334617D01*
X446000Y330367D01*
Y326033D01*
X446845Y321783D01*
X448504Y317779D01*
X450027Y315500D01*
X448504Y313221D01*
X446845Y309217D01*
X446000Y304967D01*
Y300633D01*
X446845Y296383D01*
X448504Y292379D01*
X450027Y290100D01*
X448504Y287821D01*
X446845Y283817D01*
X446000Y279567D01*
Y275233D01*
X446845Y270983D01*
X448504Y266979D01*
X450911Y263376D01*
X453976Y260312D01*
X457579Y257904D01*
X461583Y256245D01*
X465833Y255400D01*
X470167D01*
X474417Y256245D01*
X478421Y257904D01*
X482024Y260312D01*
X485089Y263376D01*
X487496Y266979D01*
X489155Y270983D01*
X490000Y275233D01*
Y279567D01*
X489155Y283817D01*
X487496Y287821D01*
X485973Y290100D01*
X487496Y292379D01*
X489155Y296383D01*
X490000Y300633D01*
Y304967D01*
X489155Y309217D01*
X487496Y313221D01*
X485973Y315500D01*
X487496Y317779D01*
X489155Y321783D01*
X490000Y326033D01*
Y330367D01*
X489155Y334617D01*
X487496Y338621D01*
X485089Y342224D01*
X482024Y345289D01*
X478421Y347696D01*
X474417Y349355D01*
X470167Y350200D01*
D02*
G37*
G36*
X243821Y267310D02*
X241319D01*
X238903Y266663D01*
X236737Y265412D01*
X234968Y263643D01*
X233717Y261477D01*
X233070Y259061D01*
Y256559D01*
X233717Y254143D01*
X234968Y251977D01*
X236737Y250208D01*
X238903Y248957D01*
X241319Y248310D01*
X243821D01*
X246237Y248957D01*
X248403Y250208D01*
X250172Y251977D01*
X251423Y254143D01*
X252070Y256559D01*
Y259061D01*
X251423Y261477D01*
X250172Y263643D01*
X248403Y265412D01*
X246237Y266663D01*
X243821Y267310D01*
D02*
G37*
G36*
X469490Y241725D02*
X466510D01*
X463588Y241144D01*
X460836Y240004D01*
X458358Y238348D01*
X456252Y236242D01*
X454596Y233764D01*
X453456Y231012D01*
X452875Y228090D01*
Y225110D01*
X453456Y222188D01*
X454596Y219436D01*
X456252Y216958D01*
X458358Y214852D01*
X460836Y213196D01*
X463588Y212056D01*
X466510Y211475D01*
X469490D01*
X472412Y212056D01*
X475164Y213196D01*
X477642Y214852D01*
X479748Y216958D01*
X481404Y219436D01*
X482544Y222188D01*
X483125Y225110D01*
Y228090D01*
X482544Y231012D01*
X481404Y233764D01*
X479748Y236242D01*
X477642Y238348D01*
X475164Y240004D01*
X472412Y241144D01*
X469490Y241725D01*
D02*
G37*
G36*
X252610Y192850D02*
X243840D01*
Y184080D01*
X252610D01*
Y192850D01*
D02*
G37*
G36*
X241300D02*
X232530D01*
Y184080D01*
X241300D01*
Y192850D01*
D02*
G37*
G36*
X252610Y181540D02*
X243840D01*
Y172770D01*
X252610D01*
Y181540D01*
D02*
G37*
G36*
X241300D02*
X232530D01*
Y172770D01*
X241300D01*
Y181540D01*
D02*
G37*
G36*
X116623Y199075D02*
X113377D01*
X110194Y198442D01*
X107196Y197200D01*
X104498Y195397D01*
X102203Y193102D01*
X100400Y190404D01*
X99158Y187406D01*
X98525Y184223D01*
Y180977D01*
X99158Y177794D01*
X100400Y174796D01*
X102203Y172098D01*
X104498Y169803D01*
X107196Y168000D01*
X110194Y166758D01*
X113377Y166125D01*
X116623D01*
X119806Y166758D01*
X122804Y168000D01*
X125502Y169803D01*
X127797Y172098D01*
X129600Y174796D01*
X130842Y177794D01*
X131475Y180977D01*
Y184223D01*
X130842Y187406D01*
X129600Y190404D01*
X127797Y193102D01*
X125502Y195397D01*
X122804Y197200D01*
X119806Y198442D01*
X116623Y199075D01*
D02*
G37*
G36*
X116918Y119475D02*
X113082D01*
X109319Y118727D01*
X105775Y117259D01*
X102585Y115127D01*
X99873Y112415D01*
X97741Y109225D01*
X96273Y105681D01*
X96175Y105188D01*
X95525Y101918D01*
Y98082D01*
X96273Y94319D01*
X97741Y90775D01*
X99873Y87585D01*
X102585Y84873D01*
X105775Y82741D01*
X109319Y81273D01*
X109812Y81175D01*
X113082Y80525D01*
X116918D01*
X120681Y81273D01*
X124225Y82741D01*
X127415Y84873D01*
X130127Y87585D01*
X132259Y90775D01*
X133727Y94319D01*
X133825Y94812D01*
X134475Y98082D01*
Y101918D01*
X133727Y105681D01*
X132259Y109225D01*
X130127Y112415D01*
X127415Y115127D01*
X124225Y117259D01*
X120681Y118727D01*
X118434Y119173D01*
X116918Y119475D01*
D02*
G37*
G36*
X179500Y77975D02*
X172500D01*
X169461Y77676D01*
X166540Y76789D01*
X163847Y75350D01*
X161487Y73413D01*
X159550Y71053D01*
X158111Y68360D01*
X157224Y65438D01*
X156925Y62400D01*
X157224Y59362D01*
X158111Y56440D01*
X159550Y53747D01*
X159412Y53269D01*
X158418Y52500D01*
X157000D01*
Y21500D01*
X195000D01*
Y52500D01*
X193582D01*
X192588Y53269D01*
X192450Y53747D01*
X193889Y56440D01*
X194776Y59362D01*
X195075Y62400D01*
X194776Y65438D01*
X193889Y68360D01*
X192450Y71053D01*
X190513Y73413D01*
X188153Y75350D01*
X185460Y76789D01*
X182539Y77676D01*
X179500Y77975D01*
D02*
G37*
G36*
X292651Y31540D02*
X292270D01*
Y20270D01*
X303540D01*
Y20651D01*
X302685Y23840D01*
X301035Y26700D01*
X298700Y29035D01*
X295840Y30685D01*
X292651Y31540D01*
D02*
G37*
G36*
X289730D02*
X289349D01*
X286160Y30685D01*
X283300Y29035D01*
X280965Y26700D01*
X279315Y23840D01*
X278460Y20651D01*
Y20270D01*
X289730D01*
Y31540D01*
D02*
G37*
G36*
X470462Y200800D02*
X465538D01*
X460708Y199839D01*
X456158Y197955D01*
X452063Y195219D01*
X448581Y191737D01*
X445845Y187642D01*
X443961Y183092D01*
X443000Y178262D01*
Y173338D01*
X443961Y168508D01*
X445845Y163958D01*
X446419Y163100D01*
X445845Y162242D01*
X443961Y157692D01*
X443000Y152862D01*
Y147938D01*
Y134316D01*
X374742Y66058D01*
X372868Y63774D01*
X371475Y61168D01*
X370617Y58341D01*
X370327Y55400D01*
X370373Y54941D01*
X369520Y54000D01*
X344500D01*
Y16000D01*
X375500D01*
Y18088D01*
X376648Y18631D01*
X376747Y18550D01*
X379440Y17111D01*
X382361Y16224D01*
X385400Y15925D01*
X388438Y16224D01*
X391360Y17111D01*
X394053Y18550D01*
X396413Y20487D01*
X398350Y22847D01*
X399789Y25540D01*
X400676Y28461D01*
X400975Y31500D01*
Y38500D01*
X400676Y41539D01*
X399789Y44460D01*
X399521Y44963D01*
Y48205D01*
X451316Y100000D01*
X493000D01*
Y150000D01*
Y152862D01*
X492039Y157692D01*
X490155Y162242D01*
X489581Y163100D01*
X490155Y163958D01*
X492039Y168508D01*
X493000Y173338D01*
Y178262D01*
X492039Y183092D01*
X490155Y187642D01*
X487419Y191737D01*
X483937Y195219D01*
X479842Y197955D01*
X475292Y199839D01*
X470462Y200800D01*
D02*
G37*
G36*
X303540Y17730D02*
X292270D01*
Y6460D01*
X292651D01*
X295840Y7315D01*
X298700Y8965D01*
X301035Y11300D01*
X302685Y14160D01*
X303540Y17349D01*
Y17730D01*
D02*
G37*
G36*
X289730D02*
X278460D01*
Y17349D01*
X279315Y14160D01*
X280965Y11300D01*
X283300Y8965D01*
X286160Y7315D01*
X289349Y6460D01*
X289730D01*
Y17730D01*
D02*
G37*
%LPD*%
G36*
X119194Y113825D02*
X121810Y112741D01*
X124165Y111167D01*
X126167Y109165D01*
X127741Y106810D01*
X128825Y104194D01*
X129377Y101416D01*
Y98584D01*
X128825Y95806D01*
X127741Y93190D01*
X126167Y90835D01*
X124165Y88833D01*
X121810Y87259D01*
X119194Y86175D01*
X116416Y85623D01*
X113584D01*
X110806Y86175D01*
X108190Y87259D01*
X105835Y88833D01*
X103833Y90835D01*
X102259Y93190D01*
X101175Y95806D01*
X100623Y98584D01*
Y101416D01*
X101175Y104194D01*
X102259Y106810D01*
X103833Y109165D01*
X105835Y111167D01*
X108190Y112741D01*
X110806Y113825D01*
X113584Y114377D01*
X116416D01*
X119194Y113825D01*
D02*
G37*
G36*
X183500Y72057D02*
X185307Y71091D01*
X186891Y69791D01*
X188191Y68207D01*
X189157Y66400D01*
X189751Y64439D01*
X189952Y62400D01*
X189751Y60361D01*
X189157Y58400D01*
X187954Y56150D01*
X187867Y55862D01*
X187569Y55366D01*
X187550Y55240D01*
X187491Y55128D01*
X187417Y54378D01*
X187377Y54247D01*
X187387Y54140D01*
X187277Y53398D01*
X186422Y52500D01*
X165578D01*
X164723Y53398D01*
X164613Y54140D01*
X164623Y54247D01*
X164583Y54378D01*
X164509Y55128D01*
X164450Y55240D01*
X164431Y55366D01*
X164133Y55862D01*
X164046Y56150D01*
X162843Y58400D01*
X162248Y60361D01*
X162048Y62400D01*
X162248Y64439D01*
X162843Y66400D01*
X163809Y68207D01*
X165109Y69791D01*
X166693Y71091D01*
X168500Y72057D01*
X169899Y72481D01*
X172500Y72225D01*
X179500D01*
X182101Y72481D01*
X183500Y72057D01*
D02*
G37*
D87*
X1134000Y225000D02*
X1146000Y237000D01*
X929000Y225000D02*
Y266000D01*
Y128000D02*
Y225000D01*
X1134000D01*
X761000Y561000D02*
X801000Y601000D01*
X705000Y561000D02*
X761000D01*
X1233500Y239500D02*
X1319000Y154000D01*
Y108000D02*
Y154000D01*
X1280000Y328000D02*
X1370000D01*
X1378000Y320000D01*
X1205645Y325000D02*
X1310645Y430000D01*
X1422000D01*
X1121000Y325000D02*
X1205645D01*
X1187000Y798000D02*
X1328000Y657000D01*
X1082000Y780426D02*
X1099574Y798000D01*
X1082000Y699000D02*
Y780426D01*
X1099574Y798000D02*
X1187000D01*
X1027000Y644000D02*
X1082000Y699000D01*
X1148000Y664000D02*
X1197000D01*
X1241538Y619462D01*
Y593104D02*
Y619462D01*
Y593104D02*
X1241809Y592834D01*
Y574521D02*
Y592834D01*
X1202000Y535000D02*
X1241538Y574538D01*
Y574250D02*
X1241809Y574521D01*
X1138000Y674000D02*
X1148000Y664000D01*
X1292750Y53212D02*
Y67250D01*
X1232000Y128000D02*
X1292750Y67250D01*
X929000Y128000D02*
X1232000D01*
X929000Y266000D02*
Y436000D01*
Y454536D01*
X788000Y652000D02*
X798000Y642000D01*
X801000Y639000D01*
X453352Y480648D02*
X467952D01*
X468000Y480600D01*
X384600Y549400D02*
X453352Y480648D01*
X652000Y551000D02*
X670000Y569000D01*
Y591858D01*
X697142Y619000D02*
X717000D01*
X670000Y591858D02*
X697142Y619000D01*
X1022000Y784000D02*
X1024000Y782000D01*
X923200Y882800D02*
X1022000Y784000D01*
X1024000Y697000D02*
Y782000D01*
X801000Y882800D02*
X923200D01*
X1255000Y339000D02*
X1283000Y367000D01*
X1255000Y311000D02*
Y339000D01*
X929000Y454536D02*
X931000Y456536D01*
Y535000D01*
X1202000D01*
X55000Y741000D02*
X214355D01*
X17000Y703000D02*
X55000Y741000D01*
X214355D02*
X229000Y755645D01*
X228000Y788000D02*
X229000Y787000D01*
Y755645D02*
Y787000D01*
X17000Y413270D02*
Y703000D01*
Y413270D02*
X54280Y375990D01*
X1282000Y298000D02*
X1335000D01*
X1233500Y239500D02*
Y291500D01*
X1253000Y311000D01*
X1329000Y255000D02*
X1390000D01*
X1476000Y341000D01*
X931000Y535000D02*
Y554000D01*
X901000Y679000D02*
X936000Y644000D01*
X1027000D01*
X1328000Y521000D02*
Y657000D01*
X558500Y722500D02*
Y736948D01*
X500000Y629000D02*
Y664000D01*
X558500Y722500D01*
X558250Y737198D02*
X558500Y736948D01*
X130000Y515000D02*
X159000Y544000D01*
X64000Y515000D02*
X130000D01*
X159000Y544000D02*
Y603000D01*
X54000Y480500D02*
Y505000D01*
X64000Y515000D01*
X28000Y766000D02*
X204000D01*
X17000Y755000D02*
X28000Y766000D01*
X117000Y288000D02*
X203000D01*
X238000Y323000D01*
X558250Y737198D02*
Y759750D01*
X558000Y760000D02*
X558250Y759750D01*
X500000Y629000D02*
X500000Y629000D01*
X159000Y603000D02*
X185000Y629000D01*
X500000D01*
X1407000Y521000D02*
X1467213D01*
X1476000Y341000D02*
Y512213D01*
X1467213Y521000D02*
X1476000Y512213D01*
X1328000Y521000D02*
X1407000D01*
X1288000D02*
X1328000D01*
X1214000Y447000D02*
X1288000Y521000D01*
X464173Y134173D02*
Y146573D01*
X468000Y150400D01*
X385400Y55400D02*
X464173Y134173D01*
X669000Y652000D02*
X788000D01*
X931000Y554000D02*
X952000Y575000D01*
X926000Y601000D02*
X952000Y575000D01*
X1127000Y447000D02*
X1214000D01*
X1146000Y237000D02*
X1231000D01*
X1233500Y239500D01*
X1138000Y674000D02*
Y761000D01*
X801000Y601000D02*
X926000D01*
X801000D02*
Y639000D01*
X929000Y98000D02*
Y128000D01*
X340000Y355000D02*
X341000Y354000D01*
X339900Y355100D02*
X340000Y355000D01*
X341000Y244000D02*
Y354000D01*
X339900Y355100D02*
Y381900D01*
X339800Y382000D02*
X339900Y381900D01*
X341000Y244000D02*
X342000Y243000D01*
D88*
X384600Y549400D02*
Y575000D01*
X385400Y35000D02*
Y55400D01*
D90*
X431500Y736892D02*
Y736948D01*
D91*
X110000Y643000D02*
D03*
X1362000Y482000D02*
D03*
X901000Y679000D02*
D03*
X902000Y575000D02*
D03*
D92*
X951000Y679000D02*
D03*
X952000Y575000D02*
D03*
X60000Y643000D02*
D03*
X1389000Y193000D02*
D03*
X1489000D02*
D03*
Y63000D02*
D03*
X1389000D02*
D03*
X1438200Y482000D02*
D03*
X1595000Y178000D02*
D03*
Y127200D02*
D03*
X1555000Y293000D02*
D03*
Y568000D02*
D03*
X1183000Y388000D02*
D03*
X55100Y564418D02*
D03*
X80500D02*
D03*
X105900D02*
D03*
X79680Y455390D02*
D03*
X105080D02*
D03*
X130480D02*
D03*
X155880D02*
D03*
X181280D02*
D03*
X206680D02*
D03*
X232080D02*
D03*
Y375990D02*
D03*
X206680D02*
D03*
X181280D02*
D03*
X155880D02*
D03*
X130480D02*
D03*
X105080D02*
D03*
X79680D02*
D03*
X54280D02*
D03*
X801000Y857400D02*
D03*
X705000Y561000D02*
D03*
X1319000Y108000D02*
D03*
X1280000Y328000D02*
D03*
X159000Y335000D02*
D03*
X1422000Y430000D02*
D03*
X1022000Y784000D02*
D03*
X459000Y561000D02*
D03*
X1283000Y367000D02*
D03*
X43000Y683000D02*
D03*
X143000Y684000D02*
D03*
X122000Y797000D02*
D03*
X228000Y788000D02*
D03*
X1335000Y298000D02*
D03*
X1282000D02*
D03*
X1255000Y311000D02*
D03*
X1329000Y255000D02*
D03*
X17000Y755000D02*
D03*
X204000Y766000D02*
D03*
X117000Y288000D02*
D03*
X558000Y760000D02*
D03*
X500000Y629000D02*
D03*
X1127000Y447000D02*
D03*
X1121000Y325000D02*
D03*
X1378000Y320000D02*
D03*
X1146000Y237000D02*
D03*
X717000Y619000D02*
D03*
X292000Y837000D02*
D03*
X1138000Y674000D02*
D03*
Y761000D02*
D03*
X874000Y681000D02*
D03*
X669000Y652000D02*
D03*
X652000Y551000D02*
D03*
X798000Y642000D02*
D03*
X801000Y908000D02*
D03*
X1024000Y697000D02*
D03*
X54000Y480500D02*
D03*
X238000Y323000D02*
D03*
X340000Y355000D02*
D03*
X342000Y243000D02*
D03*
X314000Y493000D02*
D03*
X291000Y19000D02*
D03*
D93*
X1292800Y575000D02*
D03*
X1134400D02*
D03*
X1083600Y40460D02*
D03*
X1242000Y39000D02*
D03*
X337000Y435000D02*
D03*
X289000Y382000D02*
D03*
X410000Y575000D02*
D03*
X360000Y35000D02*
D03*
D94*
X1267400Y575000D02*
D03*
X1242000D02*
D03*
X1109000D02*
D03*
X1083600D02*
D03*
X1109000Y38230D02*
D03*
X1134400D02*
D03*
X1267400Y39000D02*
D03*
X1292800D02*
D03*
X291200Y435000D02*
D03*
X314100D02*
D03*
X339800Y382000D02*
D03*
X314400D02*
D03*
X359200Y575000D02*
D03*
X384600D02*
D03*
X410800Y35000D02*
D03*
X385400D02*
D03*
D95*
X1183000Y408000D02*
D03*
D96*
X1236000Y181000D02*
D03*
X242570Y182810D02*
D03*
D97*
X1236000Y161000D02*
D03*
X242570Y257810D02*
D03*
D98*
X245085Y542500D02*
D03*
Y565400D02*
D03*
X205000Y590800D02*
D03*
Y565400D02*
D03*
X176000Y62400D02*
D03*
Y87800D02*
D03*
D99*
X245085Y588300D02*
D03*
X205000Y540000D02*
D03*
X176000Y37000D02*
D03*
D100*
X631100Y628100D02*
D03*
D101*
Y602700D02*
D03*
Y577300D02*
D03*
Y551900D02*
D03*
X554900D02*
D03*
Y577300D02*
D03*
D102*
Y602700D02*
D03*
Y628100D02*
D03*
D103*
X468000Y150400D02*
D03*
X772800Y125000D02*
D03*
Y379000D02*
D03*
Y480600D02*
D03*
X468000D02*
D03*
Y429800D02*
D03*
Y328200D02*
D03*
Y277400D02*
D03*
Y175800D02*
D03*
Y302800D02*
D03*
X466937Y456465D02*
D03*
D104*
X736300Y889000D02*
D03*
X710900D02*
D03*
X685500D02*
D03*
X660100D02*
D03*
X634700D02*
D03*
X558500D02*
D03*
X533100D02*
D03*
X507700D02*
D03*
X482300D02*
D03*
X456900D02*
D03*
X380700D02*
D03*
X355300D02*
D03*
X329900D02*
D03*
X304500D02*
D03*
X279100D02*
D03*
X279100Y736948D02*
D03*
X304500D02*
D03*
X329900D02*
D03*
X380700D02*
D03*
X456900D02*
D03*
X482300D02*
D03*
X533100D02*
D03*
X558500D02*
D03*
X583900D02*
D03*
X609300D02*
D03*
X634700D02*
D03*
X660100D02*
D03*
X736300D02*
D03*
D105*
X609300Y889000D02*
D03*
X583900D02*
D03*
X431500D02*
D03*
X406100D02*
D03*
X355300Y736948D02*
D03*
X406100D02*
D03*
X431500D02*
D03*
X507700D02*
D03*
X685500D02*
D03*
X710900D02*
D03*
X801000Y882800D02*
D03*
D106*
X253700Y889000D02*
D03*
D107*
X253700Y736948D02*
D03*
D108*
X772800Y175800D02*
D03*
Y226600D02*
D03*
Y277400D02*
D03*
Y328200D02*
D03*
Y429800D02*
D03*
X468000Y379000D02*
D03*
Y226600D02*
D03*
D109*
Y125000D02*
D03*
D110*
X929000Y266000D02*
D03*
Y436000D02*
D03*
Y98000D02*
D03*
D111*
X1004000Y266000D02*
D03*
Y436000D02*
D03*
Y98000D02*
D03*
D112*
X115000Y100000D02*
D03*
Y182600D02*
D03*
D113*
X837960Y688900D02*
D03*
Y661900D02*
D03*
D114*
Y634900D02*
D03*
D115*
X54280Y455390D02*
D03*
D116*
X801000Y832000D02*
D03*
M02*
